<svg width="16" height="16" viewBox="0 0 16 16" fill="none" xmlns="http://www.w3.org/2000/svg">
<path d="M14 0.333252H2C1.17275 0.333252 0.5 1.006 0.5 1.83325V15.3333L3.5 12.3333H14C14.8273 12.3333 15.5 11.6605 15.5 10.8333V1.83325C15.5 1.006 14.8273 0.333252 14 0.333252ZM5.75 7.83325C5.55292 7.8332 5.35778 7.79434 5.17572 7.71887C4.99366 7.6434 4.82824 7.53282 4.68892 7.39343C4.5496 7.25404 4.43909 7.08857 4.36372 6.90647C4.28834 6.72437 4.24958 6.52921 4.24962 6.33213C4.24967 6.13505 4.28854 5.9399 4.36401 5.75784C4.43947 5.57578 4.55006 5.41037 4.68945 5.27105C4.82884 5.13172 4.99431 5.02122 5.17641 4.94585C5.35851 4.87047 5.55367 4.8317 5.75075 4.83175C6.14877 4.83185 6.53046 4.99006 6.81183 5.27158C7.09321 5.55309 7.25122 5.93485 7.25113 6.33288C7.25103 6.7309 7.09282 7.11258 6.8113 7.39396C6.52978 7.67533 6.14802 7.83335 5.75 7.83325ZM10.25 7.83325C10.0529 7.8332 9.85778 7.79434 9.67572 7.71887C9.49366 7.6434 9.32824 7.53282 9.18892 7.39343C9.0496 7.25404 8.93909 7.08857 8.86372 6.90647C8.78835 6.72437 8.74958 6.52921 8.74963 6.33213C8.74967 6.13505 8.78854 5.9399 8.86401 5.75784C8.93947 5.57578 9.05006 5.41037 9.18945 5.27105C9.32884 5.13172 9.49431 5.02122 9.67641 4.94585C9.85851 4.87047 10.0537 4.8317 10.2508 4.83175C10.6488 4.83185 11.0305 4.99006 11.3118 5.27158C11.5932 5.55309 11.7512 5.93485 11.7511 6.33288C11.751 6.7309 11.5928 7.11258 11.3113 7.39396C11.0298 7.67533 10.648 7.83335 10.25 7.83325Z" fill="#15283E"/>
</svg>
