<svg width="18" height="18" viewBox="0 0 18 18" fill="none" xmlns="http://www.w3.org/2000/svg">
<path d="M9.44727 13.6318C9.90571 13.6318 10.2773 13.2602 10.2773 12.8018C10.2773 12.3433 9.90571 11.9717 9.44727 11.9717C8.98883 11.9717 8.61719 12.3433 8.61719 12.8018C8.61719 13.2602 8.98883 13.6318 9.44727 13.6318Z" fill="white" fill-opacity="0.52"/>
<path d="M9.44531 0.234375C4.7476 0.234375 0.945312 4.03603 0.945312 8.73438C0.945312 13.4321 4.74697 17.2344 9.44531 17.2344C14.143 17.2344 17.9453 13.4327 17.9453 8.73438C17.9453 4.03666 14.1437 0.234375 9.44531 0.234375ZM9.44531 15.9062C5.48162 15.9062 2.27344 12.6986 2.27344 8.73438C2.27344 4.77069 5.48109 1.5625 9.44531 1.5625C13.409 1.5625 16.6172 4.77015 16.6172 8.73438C16.6172 12.6981 13.4095 15.9062 9.44531 15.9062Z" fill="white" fill-opacity="0.52"/>
<path d="M9.44531 4.50098C7.98066 4.50098 6.78906 5.69257 6.78906 7.15723C6.78906 7.52399 7.08636 7.82129 7.45312 7.82129C7.81989 7.82129 8.11719 7.52399 8.11719 7.15723C8.11719 6.4249 8.71298 5.8291 9.44531 5.8291C10.1776 5.8291 10.7734 6.4249 10.7734 7.15723C10.7734 7.88955 10.1776 8.48535 9.44531 8.48535C9.07855 8.48535 8.78125 8.78265 8.78125 9.14941V10.8096C8.78125 11.1763 9.07855 11.4736 9.44531 11.4736C9.81207 11.4736 10.1094 11.1763 10.1094 10.8096V9.72944C11.2538 9.43383 12.1016 8.39268 12.1016 7.15723C12.1016 5.69257 10.91 4.50098 9.44531 4.50098Z" fill="white" fill-opacity="0.52"/>
</svg>
