<svg width="32" height="32" viewBox="0 0 32 32" fill="none" xmlns="http://www.w3.org/2000/svg">
<path d="M23.2973 14.8994L23.296 14.9007L20.4933 17.7526L20.8496 18.1033L20.493 17.7528L20.4932 17.7526C20.3775 17.8702 20.2926 18.0136 20.2439 18.1696L20.7212 18.3186L20.2439 18.1696C20.1952 18.3257 20.1837 18.4911 20.2101 18.6522L20.2101 18.6526L20.872 22.6794L20.8723 22.6812C20.8945 22.8129 20.8805 22.9482 20.8327 23.0708C20.785 23.1934 20.7063 23.2963 20.6085 23.3699L20.6085 23.3699L20.606 23.3718C20.5087 23.446 20.3956 23.4886 20.2798 23.4974C20.1641 23.5061 20.0473 23.4809 19.9423 23.4229L19.9412 23.4224L16.4763 21.521L16.4761 21.5209C16.3305 21.441 16.167 21.3986 16 21.3986C15.833 21.3986 15.6695 21.441 15.5239 21.5209L15.5236 21.521L12.0591 23.4224L12.0568 23.4236C11.9522 23.4818 11.8357 23.507 11.7204 23.4983C11.6051 23.4896 11.4923 23.447 11.3954 23.3727L11.3954 23.3726L11.3918 23.3699C11.294 23.2963 11.2154 23.1934 11.1676 23.0708C11.1199 22.9482 11.1059 22.8129 11.128 22.6812L11.1283 22.6794L11.7899 18.6524C11.7899 18.6523 11.7899 18.6523 11.7899 18.6522C11.8435 18.3265 11.7404 17.9903 11.5072 17.7527L11.507 17.7525L8.704 14.9007L8.70272 14.8994C8.61477 14.8106 8.55042 14.6954 8.51981 14.5659C8.48918 14.4363 8.49419 14.3002 8.53401 14.1739L8.53402 14.1739L8.53514 14.1703C8.57397 14.0438 8.64533 13.9341 8.7382 13.8524C8.83086 13.7709 8.94128 13.7202 9.05613 13.7033L9.05613 13.7033L9.05838 13.703L12.9324 13.1151L12.9325 13.1151C13.2679 13.0641 13.5488 12.8464 13.691 12.5452C13.691 12.5451 13.6911 12.545 13.6912 12.5449L15.4233 8.88119L15.424 8.87961C15.4794 8.76134 15.5642 8.66484 15.6659 8.59887C15.7673 8.53305 15.8824 8.49957 15.9981 8.50002L16.002 8.5C16.1178 8.49953 16.2329 8.533 16.3344 8.59882C16.4361 8.66479 16.5209 8.7613 16.5763 8.87961L16.577 8.88115L18.3089 12.545C18.3089 12.5451 18.309 12.5451 18.309 12.5452C18.379 12.6933 18.4834 12.8236 18.6152 12.9236C18.7472 13.0237 18.9022 13.0901 19.0673 13.1151L22.9413 13.7027L22.9434 13.703C23.0583 13.7199 23.1689 13.7707 23.2616 13.8523C23.3546 13.9341 23.426 14.0438 23.4649 14.1704L23.4649 14.1704L23.466 14.1739C23.5058 14.3002 23.5108 14.4363 23.4802 14.5659C23.4496 14.6954 23.3852 14.8106 23.2973 14.8994Z" fill="#0094FF" stroke="#0094FF"/>
<circle cx="16" cy="16" r="16" fill="#A7CAFF" fill-opacity="0.14"/>
</svg>
