<svg width="32" height="32" viewBox="0 0 32 32" fill="none" xmlns="http://www.w3.org/2000/svg">
<path d="M14.1483 9.85824L14.1486 9.85839C14.6449 10.0949 15.0953 10.4414 15.4733 10.8764L15.4737 10.8768C15.58 10.9989 15.7109 11.0978 15.8587 11.166C16.0066 11.2341 16.1674 11.2697 16.3306 11.2697C16.4938 11.2697 16.6546 11.2341 16.8024 11.166C16.9502 11.0978 17.0811 10.9989 17.1875 10.8768L17.1876 10.8766C17.9527 9.99726 18.9921 9.5 20.0793 9.5C21.1668 9.5 22.206 9.99654 22.9709 10.8765L22.971 10.8766C23.735 11.755 24.1611 12.9429 24.1611 14.1779C24.1611 15.4129 23.735 16.6008 22.971 17.4792L22.9709 17.4794L17.8076 23.4194L17.8076 23.4194C17.6189 23.6364 17.3897 23.8086 17.1355 23.926C16.8814 24.0434 16.6072 24.1037 16.3306 24.1037C16.0539 24.1037 15.7798 24.0434 15.5256 23.926C15.2714 23.8086 15.0422 23.6364 14.8536 23.4194L14.8536 23.4194L9.69122 17.4805C9.69105 17.4803 9.69089 17.4801 9.69072 17.4799C9.30837 17.0373 9.009 16.5226 8.80912 15.9627L8.80886 15.962C8.60443 15.392 8.49973 14.7881 8.5 14.179V14.1788C8.5 13.5668 8.60452 12.9609 8.80861 12.3946L8.80861 12.3946L8.80907 12.3933C9.00914 11.8334 9.30868 11.3188 9.69118 10.8763L9.69142 10.876C10.063 10.4454 10.514 10.0994 11.0162 9.85783C11.5081 9.62243 12.0422 9.50063 12.5821 9.5C13.1201 9.50004 13.6521 9.62136 14.1483 9.85824Z" fill="#0094FF" stroke="#0094FF"/>
<circle cx="16" cy="16" r="16" fill="#A7CAFF" fill-opacity="0.14"/>
</svg>
