<svg width="493" height="652" viewBox="0 0 493 652" fill="none" xmlns="http://www.w3.org/2000/svg">
<g filter="url(#filter0_d_115_24918)">
<path d="M20 81.1129C20 75.5901 24.4772 71.1129 30 71.1129H189C194.523 71.1129 199 66.6358 199 61.1129V26C199 20.4772 203.477 16 209 16H463C468.523 16 473 20.4772 473 26V618C473 623.523 468.523 628 463 628H30C24.4772 628 20 623.523 20 618V81.1129Z" fill="#1F1F1F"/>
</g>
<mask id="path-2-inside-1_115_24918" fill="white">
<path d="M30 628C24.4772 628 20 623.523 20 618L20 575L473 575L473 618C473 623.523 468.523 628 463 628L30 628Z"/>
</mask>
<path d="M20 628L20 575L20 628ZM473 575L473 628L473 575ZM473 628L20 628L473 628ZM20 574L473 574L473 576L20 576L20 574Z" fill="#474F58" fill-opacity="0.2" mask="url(#path-2-inside-1_115_24918)"/>
<defs>
<filter id="filter0_d_115_24918" x="0" y="0" width="493" height="652" filterUnits="userSpaceOnUse" color-interpolation-filters="sRGB">
<feFlood flood-opacity="0" result="BackgroundImageFix"/>
<feColorMatrix in="SourceAlpha" type="matrix" values="0 0 0 0 0 0 0 0 0 0 0 0 0 0 0 0 0 0 127 0" result="hardAlpha"/>
<feOffset dy="4"/>
<feGaussianBlur stdDeviation="10"/>
<feComposite in2="hardAlpha" operator="out"/>
<feColorMatrix type="matrix" values="0 0 0 0 0 0 0 0 0 0 0 0 0 0 0 0 0 0 0.15 0"/>
<feBlend mode="normal" in2="BackgroundImageFix" result="effect1_dropShadow_115_24918"/>
<feBlend mode="normal" in="SourceGraphic" in2="effect1_dropShadow_115_24918" result="shape"/>
</filter>
</defs>
</svg>
