<svg width="125" height="27" viewBox="0 0 125 27" fill="none" xmlns="http://www.w3.org/2000/svg">
<g clip-path="url(#clip0_738_1857)">
<path d="M36.0009 0.682025C30.0098 0.80548 25.2129 5.54856 25.2129 11.4067V23.4284C25.2129 25.1249 26.6267 26.5002 28.3708 26.5002C30.1149 26.5002 31.5287 25.1249 31.5287 23.4284V11.4067C31.5287 10.1562 32.0651 9.01063 32.9235 8.17962C33.7778 7.23844 34.9541 6.82294 36.2411 6.82294C38.8081 6.82294 40.9534 8.80354 40.9534 11.4067V23.4284C40.9534 25.1249 42.3672 26.5002 44.1113 26.5002C45.8554 26.5002 47.2692 25.1249 47.2692 23.4284V11.6842C47.2692 5.65609 42.198 0.554587 36.0022 0.682025H36.0009Z" fill="#1585FA"/>
<path d="M18.897 0.680664C17.153 0.680664 15.7391 2.05593 15.7391 3.75245V15.7741C15.7391 17.0246 15.2028 18.1702 14.3444 19.0012C13.4901 19.9424 12.3137 20.3579 11.0268 20.3579C8.4598 20.3579 6.31448 18.3773 6.31448 15.7741V3.75245C6.31448 2.05593 4.90065 0.680664 3.15656 0.680664C1.41247 0.680664 0 2.05593 0 3.75245V15.4967C0 21.5247 5.07124 26.6262 11.267 26.4988C17.258 26.3753 22.055 21.6323 22.055 15.7741V3.75245C22.055 2.05593 20.6411 0.680664 18.897 0.680664Z" fill="#1585FA"/>
<path d="M56.9927 3.87458C56.9927 2.11063 55.5227 0.680664 53.7093 0.680664C51.8958 0.680664 50.4258 2.11063 50.4258 3.87458V23.3075C50.4258 25.0715 51.8958 26.5015 53.7093 26.5015C55.5227 26.5015 56.9927 25.0715 56.9927 23.3075V3.87458Z" fill="#1585FA"/>
<path d="M80.1381 0.712471C78.4459 0.0805911 76.5462 0.902301 75.8966 2.5497L71.1734 14.5169L66.4502 2.5497C65.8006 0.903628 63.9009 0.0805911 62.2087 0.712471C60.5164 1.34435 59.6703 3.1922 60.3199 4.83828L68.0237 24.3575C68.5354 25.6545 69.8223 26.4364 71.1734 26.4032C72.5244 26.4364 73.8114 25.6545 74.3231 24.3575L82.0269 4.83828C82.6765 3.1922 81.8317 1.34435 80.1381 0.712471Z" fill="#1585FA"/>
<path d="M107.214 17.0405H107.219L107.214 17.0457V17.0405Z" fill="#FE7D23"/>
<path d="M107.219 17.0366L107.223 17.0312V17.0405H107.219V17.0366Z" fill="#FE7D23"/>
<path d="M107.229 17.022H107.223V17.0313H107.229V17.022Z" fill="#FE7D23"/>
<path d="M107.234 17.0166H107.229V17.0217H107.234V17.0166Z" fill="#FE7D23"/>
<path d="M107.24 17.0073H107.234V17.0125H107.24V17.0073Z" fill="#FE7D23"/>
<path d="M107.249 16.9927V16.9965H107.244L107.249 16.9927Z" fill="#FE7D23"/>
<path d="M107.204 17.0366H107.21L107.204 17.0461H107.199L107.204 17.0366Z" fill="#FE7D23"/>
<path d="M107.214 17.0259H107.219L107.214 17.0357H107.21L107.214 17.0259Z" fill="#FE7D23"/>
<path d="M107.225 17.022H107.219V17.0271H107.225V17.022Z" fill="#FE7D23"/>
<path d="M107.229 17.0166H107.223V17.0217H107.229V17.0166Z" fill="#FE7D23"/>
<path d="M107.234 17.0112H107.229V17.0164H107.234V17.0112Z" fill="#FE7D23"/>
<path d="M107.24 17.0073H107.234V17.0125H107.24V17.0073Z" fill="#FE7D23"/>
<path d="M107.244 17.002H107.238V17.0071H107.244V17.002Z" fill="#FE7D23"/>
<path d="M107.244 16.9966H107.249L107.244 17.0017V16.9966Z" fill="#FE7D23"/>
<path d="M107.249 16.9927H107.253L107.249 16.9967V16.9927Z" fill="#FE7D23"/>
<path d="M107.264 16.9834L107.253 16.9929V16.9875L107.264 16.9834Z" fill="#FE7D23"/>
<path d="M107.209 17.0259H107.213L107.209 17.0365H107.195L107.209 17.0259Z" fill="#FE7D23"/>
<path d="M107.223 17.022H107.214V17.0269H107.223V17.022Z" fill="#FE7D23"/>
<path d="M107.229 17.0166H107.223V17.0217H107.229V17.0166Z" fill="#FE7D23"/>
<path d="M107.24 17.0112H107.234V17.0164H107.24V17.0112Z" fill="#FE7D23"/>
<path d="M107.249 17.0073H107.244V17.0125H107.249V17.0073Z" fill="#FE7D23"/>
<path d="M107.264 16.9966V17.0017H107.259L107.264 16.9966Z" fill="#FE7D23"/>
<path d="M107.204 17.022H107.213V17.0256H107.209L107.204 17.022Z" fill="#FE7D23"/>
<path d="M107.229 17.0166V17.022H107.214L107.219 17.0166H107.229Z" fill="#FE7D23"/>
<path d="M107.243 17.0112H107.234V17.0161H107.243V17.0112Z" fill="#FE7D23"/>
<path d="M107.259 17.0073H107.253V17.0125H107.259V17.0073Z" fill="#FE7D23"/>
<path d="M107.253 17.0112V17.0165H107.21L107.199 17.0112H107.253Z" fill="#FE7D23"/>
<path d="M107.223 17.0073V17.0112H107.209L107.204 17.002L107.213 17.0073H107.223Z" fill="#FE7D23"/>
<path d="M107.249 17.0112H107.234V17.0167H107.249V17.0112Z" fill="#FE7D23"/>
<path d="M107.273 17.0215H107.268L107.264 17.0166L107.273 17.0215Z" fill="#FE7D23"/>
<path d="M107.219 16.9968V17.0022H107.21L107.204 16.9927L107.219 16.9968Z" fill="#FE7D23"/>
<path d="M107.228 17.002H107.219V17.0069H107.228V17.002Z" fill="#FE7D23"/>
<path d="M107.238 17.0073H107.229V17.0122H107.238V17.0073Z" fill="#FE7D23"/>
<path d="M107.249 17.0112H107.244V17.0164H107.249V17.0112Z" fill="#FE7D23"/>
<path d="M107.259 17.0166H107.253V17.0217H107.259V17.0166Z" fill="#FE7D23"/>
<path d="M107.273 17.0256H107.264V17.022H107.268L107.273 17.0256Z" fill="#FE7D23"/>
<path d="M107.229 16.9966V17.0019H107.219V16.9966L107.214 16.9873L107.223 16.9926L107.229 16.9966Z" fill="#FE7D23"/>
<path d="M107.234 17.002H107.229V17.0071H107.234V17.002Z" fill="#FE7D23"/>
<path d="M107.24 17.0073H107.234V17.0125H107.24V17.0073Z" fill="#FE7D23"/>
<path d="M107.255 17.0166H107.249V17.0217H107.255V17.0166Z" fill="#FE7D23"/>
<path d="M107.259 17.022H107.253V17.0271H107.259V17.022Z" fill="#FE7D23"/>
<path d="M107.234 16.9966V17.0019H107.229V16.9966L107.223 16.9926V16.9873L107.234 16.9966Z" fill="#FE7D23"/>
<path d="M107.24 17.002H107.234V17.0071H107.24V17.002Z" fill="#FE7D23"/>
<path d="M107.244 17.0073H107.238V17.0125H107.244V17.0073Z" fill="#FE7D23"/>
<path d="M107.255 17.022H107.249V17.0271H107.255V17.022Z" fill="#FE7D23"/>
<path d="M107.259 17.0259H107.253V17.031H107.259V17.0259Z" fill="#FE7D23"/>
<path d="M107.238 16.9873V16.9966H107.234V16.978L107.238 16.9873Z" fill="#FE7D23"/>
<path d="M107.244 16.9966H107.238V17.0059H107.244V16.9966Z" fill="#FE7D23"/>
<path d="M107.249 17.0073H107.244V17.0166H107.249V17.0073Z" fill="#FE7D23"/>
<path d="M107.255 17.022H107.249V17.0271H107.255V17.022Z" fill="#FE7D23"/>
<path d="M107.259 17.0312H107.253V17.0364H107.259V17.0312Z" fill="#FE7D23"/>
<path d="M107.264 17.0405V17.0457L107.259 17.0405H107.264Z" fill="#FE7D23"/>
<path d="M107.244 16.9873H107.238L107.244 16.978L107.249 16.9873V17.0072H107.244V16.9873Z" fill="#FE7D23"/>
<path d="M107.255 17.0166H107.249V17.0312H107.255V17.0166Z" fill="#FE7D23"/>
<path d="M107.259 17.0551H107.253V17.0513L107.259 17.0551Z" fill="#FE7D23"/>
<path d="M107.255 16.9873H107.249V17.0404H107.255V16.9873Z" fill="#FE7D23"/>
<path d="M107.234 17.0553L107.238 17.0513L107.234 17.0606V17.0553Z" fill="#FE7D23"/>
<path d="M107.238 17.0405H107.244L107.238 17.0457V17.0405Z" fill="#FE7D23"/>
<path d="M107.244 17.026L107.249 17.022V17.0313H107.244V17.026Z" fill="#FE7D23"/>
<path d="M107.249 17.0073L107.253 17.002V17.0166H107.249V17.0073Z" fill="#FE7D23"/>
<path d="M107.264 16.9834L107.259 17.002H107.253V16.9874L107.264 16.9834Z" fill="#FE7D23"/>
<path d="M107.229 17.0513H107.234V17.0554L107.223 17.0608L107.229 17.0513Z" fill="#FE7D23"/>
<path d="M107.244 17.0366H107.238V17.0418H107.244V17.0366Z" fill="#FE7D23"/>
<path d="M107.249 17.0259H107.244V17.031H107.249V17.0259Z" fill="#FE7D23"/>
<path d="M107.255 17.0166H107.249V17.0259H107.255V17.0166Z" fill="#FE7D23"/>
<path d="M107.259 17.0073H107.253V17.0166H107.259V17.0073Z" fill="#FE7D23"/>
<path d="M107.264 17.002H107.259V17.0071H107.264V17.002Z" fill="#FE7D23"/>
<path d="M107.273 16.9927L107.264 17.0013V16.9964L107.273 16.9927Z" fill="#FE7D23"/>
<path d="M107.223 17.051L107.229 17.0459V17.051H107.223Z" fill="#FE7D23"/>
<path d="M107.229 17.0457L107.234 17.0405V17.0457H107.229Z" fill="#FE7D23"/>
<path d="M107.24 17.0366H107.234V17.0418H107.24V17.0366Z" fill="#FE7D23"/>
<path d="M107.244 17.0312H107.238V17.0364H107.244V17.0312Z" fill="#FE7D23"/>
<path d="M107.249 17.0259H107.244V17.031H107.249V17.0259Z" fill="#FE7D23"/>
<path d="M107.255 17.022H107.249V17.0271H107.255V17.022Z" fill="#FE7D23"/>
<path d="M107.259 17.0166H107.253V17.0217H107.259V17.0166Z" fill="#FE7D23"/>
<path d="M107.264 17.0112H107.259V17.0164H107.264V17.0112Z" fill="#FE7D23"/>
<path d="M107.27 17.0073H107.264V17.0125H107.27V17.0073Z" fill="#FE7D23"/>
<path d="M107.214 17.0405H107.219L107.214 17.0457V17.0405Z" fill="#FE7D23"/>
<path d="M107.234 17.0312H107.229V17.0364H107.234V17.0312Z" fill="#FE7D23"/>
<path d="M107.244 17.0259H107.238V17.031H107.244V17.0259Z" fill="#FE7D23"/>
<path d="M107.255 17.022H107.249V17.0271H107.255V17.022Z" fill="#FE7D23"/>
<path d="M107.262 17.0166H107.253V17.0215H107.262V17.0166Z" fill="#FE7D23"/>
<path d="M107.268 17.0112L107.264 17.0164V17.0112H107.268Z" fill="#FE7D23"/>
<path d="M107.204 17.0454L107.213 17.0405L107.209 17.0454H107.204Z" fill="#FE7D23"/>
<path d="M107.225 17.0366H107.219V17.0418H107.225V17.0366Z" fill="#FE7D23"/>
<path d="M107.243 17.0312H107.234V17.0362H107.243V17.0312Z" fill="#FE7D23"/>
<path d="M107.264 17.0259H107.249V17.0313H107.264V17.0259Z" fill="#FE7D23"/>
<path d="M107.283 17.022L107.279 17.026H107.264V17.022H107.283Z" fill="#FE7D23"/>
<path d="M107.283 17.0312L107.279 17.0365H107.223V17.0312H107.268L107.279 17.0259L107.283 17.0312Z" fill="#FE7D23"/>
<path d="M107.244 17.0259H107.229V17.0313H107.244V17.0259Z" fill="#FE7D23"/>
<path d="M107.279 17.0366H107.253V17.0312H107.268L107.279 17.0366Z" fill="#FE7D23"/>
<path d="M107.225 17.022H107.219V17.0271H107.225V17.022Z" fill="#FE7D23"/>
<path d="M107.234 17.0259H107.229V17.031H107.234V17.0259Z" fill="#FE7D23"/>
<path d="M107.247 17.0312H107.238V17.0362H107.247V17.0312Z" fill="#FE7D23"/>
<path d="M107.258 17.0366H107.249V17.0415H107.258V17.0366Z" fill="#FE7D23"/>
<path d="M107.274 17.0514L107.264 17.046L107.259 17.0405H107.268L107.274 17.0514Z" fill="#FE7D23"/>
<path d="M107.225 17.0166H107.219V17.0217H107.225V17.0166Z" fill="#FE7D23"/>
<path d="M107.229 17.022H107.223V17.0271H107.229V17.022Z" fill="#FE7D23"/>
<path d="M107.244 17.0312H107.238V17.0364H107.244V17.0312Z" fill="#FE7D23"/>
<path d="M107.249 17.0366H107.244V17.0418H107.249V17.0366Z" fill="#FE7D23"/>
<path d="M107.264 17.046V17.0514H107.253V17.046H107.249V17.0405H107.259L107.264 17.046Z" fill="#FE7D23"/>
<path d="M107.225 17.0112H107.219V17.0164H107.225V17.0112Z" fill="#FE7D23"/>
<path d="M107.229 17.0166H107.223V17.0217H107.229V17.0166Z" fill="#FE7D23"/>
<path d="M107.24 17.0312H107.234V17.0364H107.24V17.0312Z" fill="#FE7D23"/>
<path d="M107.244 17.0366H107.238V17.0418H107.244V17.0366Z" fill="#FE7D23"/>
<path d="M107.253 17.0551H107.249V17.0511L107.244 17.0405H107.249V17.0458H107.253V17.0551Z" fill="#FE7D23"/>
<path d="M107.259 17.0552V17.0658L107.253 17.0552H107.259Z" fill="#FE7D23"/>
<path d="M107.223 17.0071H107.219V17.002L107.223 17.0071Z" fill="#FE7D23"/>
<path d="M107.229 17.0112H107.223V17.0164H107.229V17.0112Z" fill="#FE7D23"/>
<path d="M107.234 17.022H107.229V17.0271H107.234V17.022Z" fill="#FE7D23"/>
<path d="M107.24 17.0312H107.234V17.0405H107.24V17.0312Z" fill="#FE7D23"/>
<path d="M107.249 17.0511V17.0657L107.238 17.0511V17.0405H107.244L107.249 17.0511Z" fill="#FE7D23"/>
<path d="M107.234 17.0166H107.229V17.0312H107.234V17.0166Z" fill="#FE7D23"/>
<path d="M107.238 17.0405V17.0511L107.234 17.0604V17.0405H107.238Z" fill="#FE7D23"/>
<path d="M107.234 17.002V17.0551L107.223 17.0604L107.229 17.0511V17.002H107.234Z" fill="#FE7D23"/>
<path d="M107.219 17.0405H107.223V17.0511L107.214 17.0604L107.219 17.0405Z" fill="#FE7D23"/>
<path d="M107.223 17.0259H107.229V17.0365L107.223 17.0405V17.0259Z" fill="#FE7D23"/>
<path d="M107.234 17.0112H107.229V17.0205H107.234V17.0112Z" fill="#FE7D23"/>
<path d="M107.24 16.9966H107.234V17.0017H107.24V16.9966Z" fill="#FE7D23"/>
<path d="M107.244 16.978V16.9873H107.238L107.244 16.978Z" fill="#FE7D23"/>
<path d="M104.3 10.0642L100.783 1.77148C103.23 3.12551 104.473 5.45789 104.473 8.18188C104.473 8.85491 104.424 9.47352 104.299 10.0642H104.3Z" fill="#FE7D23"/>
<path d="M103.518 12.0716L94.795 0.50531C94.9138 0.5 95.0434 0.5 95.1676 0.5C96.7397 0.5 98.1167 0.717707 99.2958 1.11861L104.115 10.7561C103.975 11.2008 103.776 11.6362 103.518 12.0716Z" fill="#FE7D23"/>
<path d="M92.6074 6.53323C92.5023 6.72173 92.4136 6.93944 92.3345 7.17175C92.2185 7.52884 92.0342 7.84876 91.7981 8.12488C91.2345 8.78331 90.2519 8.93331 89.4604 8.55764L87.1308 7.45185C86.5222 7.16246 86.11 6.55182 86.1646 5.89471C86.1988 5.49382 86.3161 5.08893 86.5304 4.69998C86.8538 4.11456 87.2564 3.55835 87.7491 3.06055L92.6088 6.53456L92.6074 6.53323Z" fill="#FE7D23"/>
<path d="M93.328 5.69598L88.9118 2.10117C90.0008 1.37106 91.4037 0.838739 93.1983 0.615723L103.3 12.4104C103.112 12.6905 102.888 12.9759 102.634 13.2613L97.1778 8.82485C97.2228 8.58723 97.2419 8.34165 97.2419 8.07483C97.2419 6.36238 96.4804 5.29243 94.8046 5.29243C94.2028 5.29243 93.7156 5.42783 93.328 5.69333V5.69598Z" fill="#FE7D23"/>
<path d="M101.584 14.3216L95.5265 11.4436C96.2075 10.8144 96.666 10.2489 96.9335 9.63428L102.39 13.5384C102.145 13.7946 101.882 14.0561 101.584 14.3216Z" fill="#FE7D23"/>
<path d="M100.132 15.5165L92.4478 13.901C92.6224 13.7709 92.7958 13.6395 92.9745 13.5041C93.7101 12.9532 94.3379 12.4686 94.8646 12.0239L101.265 14.6019C100.923 14.8966 100.545 15.2019 100.131 15.5165H100.132Z" fill="#FE7D23"/>
<path d="M97.665 17.2779L88.1312 17.5434C88.9868 16.6049 90.0704 15.7049 91.4283 14.6694L99.6302 15.8881C99.3217 16.1111 98.9942 16.3434 98.6448 16.5797C98.3023 16.8173 97.9789 17.0496 97.665 17.2766V17.2779Z" fill="#FE7D23"/>
<path d="M94.6012 20.4228L85.7184 22.8176C85.7184 22.7831 85.7238 22.7552 85.7279 22.7207C85.9818 21.1198 86.4444 19.8852 87.165 18.7821L96.823 17.9312C95.9578 18.6374 95.2508 19.3197 94.7391 19.9927C94.634 20.1281 94.5903 20.2781 94.5999 20.4228H94.6012Z" fill="#FE7D23"/>
<path d="M99.7544 21.1053L90.0513 26.4073H88.9678C87.4065 26.4073 86.207 25.4979 85.8194 24.201L95.1294 21.0801C95.1895 21.0947 95.2536 21.104 95.3232 21.104H99.7544V21.1053Z" fill="#FE7D23"/>
<path d="M102.643 21.2009L96.9431 26.406H92.2976L100.733 21.104H101.906C102.164 21.104 102.409 21.1385 102.642 21.2009H102.643Z" fill="#FE7D23"/>
<path d="M103.926 21.9759L100.972 26.407H98.1413L103.041 21.3467C103.379 21.4914 103.682 21.7091 103.926 21.9759Z" fill="#FE7D23"/>
<path d="M104.603 24.1621C104.394 25.4538 103.255 26.4069 101.908 26.4069H101.789L104.181 22.2798C104.544 22.8121 104.714 23.4705 104.605 24.1621H104.603Z" fill="#FE7D23"/>
<path d="M107.214 17.0405H107.219L107.214 17.0457V17.0405Z" fill="#FE7D23"/>
<path d="M107.225 17.0366H107.219V17.0418H107.225V17.0366Z" fill="#FE7D23"/>
<path d="M107.229 17.022H107.223V17.0313H107.229V17.022Z" fill="#FE7D23"/>
<path d="M107.234 17.0166H107.229V17.0217H107.234V17.0166Z" fill="#FE7D23"/>
<path d="M107.24 17.0073H107.234V17.0125H107.24V17.0073Z" fill="#FE7D23"/>
<path d="M107.249 16.9927V16.9965H107.244L107.249 16.9927Z" fill="#FE7D23"/>
<path d="M107.21 17.0366L107.204 17.0461H107.199L107.204 17.0366H107.21Z" fill="#FE7D23"/>
<path d="M107.219 17.0259L107.214 17.0357H107.21L107.214 17.0259H107.219Z" fill="#FE7D23"/>
<path d="M107.225 17.022H107.219V17.0271H107.225V17.022Z" fill="#FE7D23"/>
<path d="M107.229 17.0166H107.223V17.0217H107.229V17.0166Z" fill="#FE7D23"/>
<path d="M107.234 17.0112H107.229V17.0164H107.234V17.0112Z" fill="#FE7D23"/>
<path d="M107.24 17.0073H107.234V17.0125H107.24V17.0073Z" fill="#FE7D23"/>
<path d="M107.244 17.002H107.238V17.0071H107.244V17.002Z" fill="#FE7D23"/>
<path d="M107.244 16.9966H107.249L107.244 17.0017V16.9966Z" fill="#FE7D23"/>
<path d="M107.249 16.9927H107.253L107.249 16.9967V16.9927Z" fill="#FE7D23"/>
<path d="M107.264 16.9834L107.253 16.9929V16.9875L107.264 16.9834Z" fill="#FE7D23"/>
<path d="M107.223 17.022H107.214V17.0269H107.223V17.022Z" fill="#FE7D23"/>
<path d="M107.229 17.0166H107.223V17.0217H107.229V17.0166Z" fill="#FE7D23"/>
<path d="M107.24 17.0112H107.234V17.0164H107.24V17.0112Z" fill="#FE7D23"/>
<path d="M107.249 17.0073H107.244V17.0125H107.249V17.0073Z" fill="#FE7D23"/>
<path d="M107.264 16.9966V17.0017H107.259L107.264 16.9966Z" fill="#FE7D23"/>
<path d="M107.229 17.0166V17.022H107.214L107.219 17.0166H107.229Z" fill="#FE7D23"/>
<path d="M107.243 17.0112H107.234V17.0161H107.243V17.0112Z" fill="#FE7D23"/>
<path d="M107.259 17.0073H107.253V17.0125H107.259V17.0073Z" fill="#FE7D23"/>
<path d="M107.254 17.0112H107.219V17.0165H107.254V17.0112Z" fill="#FE7D23"/>
<path d="M107.249 17.0112H107.234V17.0167H107.249V17.0112Z" fill="#FE7D23"/>
<path d="M107.268 17.0217H107.264V17.0166L107.268 17.0217Z" fill="#FE7D23"/>
<path d="M107.228 17.002H107.219V17.0069H107.228V17.002Z" fill="#FE7D23"/>
<path d="M107.238 17.0073H107.229V17.0122H107.238V17.0073Z" fill="#FE7D23"/>
<path d="M107.249 17.0112H107.244V17.0164H107.249V17.0112Z" fill="#FE7D23"/>
<path d="M107.259 17.0166H107.253V17.0217H107.259V17.0166Z" fill="#FE7D23"/>
<path d="M107.273 17.0256H107.264V17.022H107.268L107.273 17.0256Z" fill="#FE7D23"/>
<path d="M107.234 17.002H107.229V17.0071H107.234V17.002Z" fill="#FE7D23"/>
<path d="M107.239 17.0073H107.234V17.0125H107.239V17.0073Z" fill="#FE7D23"/>
<path d="M107.255 17.0166H107.249V17.0217H107.255V17.0166Z" fill="#FE7D23"/>
<path d="M107.259 17.022H107.253V17.0271H107.259V17.022Z" fill="#FE7D23"/>
<path d="M107.234 16.9966H107.229V17.0017H107.234V16.9966Z" fill="#FE7D23"/>
<path d="M107.239 17.002H107.234V17.0071H107.239V17.002Z" fill="#FE7D23"/>
<path d="M107.243 17.0073H107.238V17.0125H107.243V17.0073Z" fill="#FE7D23"/>
<path d="M107.255 17.022H107.249V17.0271H107.255V17.022Z" fill="#FE7D23"/>
<path d="M107.259 17.0259H107.253V17.031H107.259V17.0259Z" fill="#FE7D23"/>
<path d="M107.244 16.9966H107.238V17.0059H107.244V16.9966Z" fill="#FE7D23"/>
<path d="M107.249 17.0073H107.244V17.0166H107.249V17.0073Z" fill="#FE7D23"/>
<path d="M107.255 17.022H107.249V17.0271H107.255V17.022Z" fill="#FE7D23"/>
<path d="M107.259 17.0312H107.253V17.0364H107.259V17.0312Z" fill="#FE7D23"/>
<path d="M107.264 17.0405V17.0457L107.259 17.0405H107.264Z" fill="#FE7D23"/>
<path d="M107.249 16.9873V17.0072H107.244V16.9873H107.238L107.244 16.978L107.249 16.9873Z" fill="#FE7D23"/>
<path d="M107.255 17.0166H107.249V17.0312H107.255V17.0166Z" fill="#FE7D23"/>
<path d="M107.259 17.0551H107.253V17.0513L107.259 17.0551Z" fill="#FE7D23"/>
<path d="M107.255 16.9873H107.249V17.0404H107.255V16.9873Z" fill="#FE7D23"/>
<path d="M107.234 17.0553L107.238 17.0513L107.234 17.0606V17.0553Z" fill="#FE7D23"/>
<path d="M107.238 17.0405H107.244L107.238 17.0457V17.0405Z" fill="#FE7D23"/>
<path d="M107.244 17.026L107.249 17.022V17.0313H107.244V17.026Z" fill="#FE7D23"/>
<path d="M107.249 17.0073L107.253 17.002V17.0166H107.249V17.0073Z" fill="#FE7D23"/>
<path d="M107.264 16.9834L107.259 17.002H107.253V16.9874L107.264 16.9834Z" fill="#FE7D23"/>
<path d="M107.234 17.0513V17.0554L107.223 17.0608L107.229 17.0513H107.234Z" fill="#FE7D23"/>
<path d="M107.244 17.0366H107.238V17.0418H107.244V17.0366Z" fill="#FE7D23"/>
<path d="M107.249 17.0259H107.244V17.031H107.249V17.0259Z" fill="#FE7D23"/>
<path d="M107.255 17.0166H107.249V17.0259H107.255V17.0166Z" fill="#FE7D23"/>
<path d="M107.259 17.0073H107.253V17.0166H107.259V17.0073Z" fill="#FE7D23"/>
<path d="M107.264 17.002H107.259V17.0071H107.264V17.002Z" fill="#FE7D23"/>
<path d="M107.223 17.051L107.229 17.0459V17.051H107.223Z" fill="#FE7D23"/>
<path d="M107.229 17.0457L107.234 17.0405V17.0457H107.229Z" fill="#FE7D23"/>
<path d="M107.24 17.0366H107.234V17.0418H107.24V17.0366Z" fill="#FE7D23"/>
<path d="M107.244 17.0312H107.238V17.0364H107.244V17.0312Z" fill="#FE7D23"/>
<path d="M107.249 17.0259H107.244V17.031H107.249V17.0259Z" fill="#FE7D23"/>
<path d="M107.255 17.022H107.249V17.0271H107.255V17.022Z" fill="#FE7D23"/>
<path d="M107.259 17.0166H107.253V17.0217H107.259V17.0166Z" fill="#FE7D23"/>
<path d="M107.264 17.0112H107.259V17.0164H107.264V17.0112Z" fill="#FE7D23"/>
<path d="M107.27 17.0073H107.264V17.0125H107.27V17.0073Z" fill="#FE7D23"/>
<path d="M107.214 17.0405H107.219L107.214 17.0457V17.0405Z" fill="#FE7D23"/>
<path d="M107.234 17.0312H107.229V17.0364H107.234V17.0312Z" fill="#FE7D23"/>
<path d="M107.244 17.0259H107.238V17.031H107.244V17.0259Z" fill="#FE7D23"/>
<path d="M107.255 17.022H107.249V17.0271H107.255V17.022Z" fill="#FE7D23"/>
<path d="M107.262 17.0166H107.253V17.0215H107.262V17.0166Z" fill="#FE7D23"/>
<path d="M107.264 17.0112H107.268L107.264 17.0164V17.0112Z" fill="#FE7D23"/>
<path d="M107.214 17.0405V17.0457H107.21L107.214 17.0405Z" fill="#FE7D23"/>
<path d="M107.224 17.0366H107.219V17.0418H107.224V17.0366Z" fill="#FE7D23"/>
<path d="M107.243 17.0312H107.234V17.0362H107.243V17.0312Z" fill="#FE7D23"/>
<path d="M107.264 17.0259H107.249V17.0313H107.264V17.0259Z" fill="#FE7D23"/>
<path d="M107.268 17.022L107.273 17.0256H107.264V17.022H107.268Z" fill="#FE7D23"/>
<path d="M107.279 17.0366H107.223V17.0312H107.268L107.279 17.0366Z" fill="#FE7D23"/>
<path d="M107.244 17.0259H107.229V17.0313H107.244V17.0259Z" fill="#FE7D23"/>
<path d="M107.279 17.0366H107.253V17.0312H107.268L107.279 17.0366Z" fill="#FE7D23"/>
<path d="M107.225 17.022H107.219V17.0271H107.225V17.022Z" fill="#FE7D23"/>
<path d="M107.234 17.0259H107.229V17.031H107.234V17.0259Z" fill="#FE7D23"/>
<path d="M107.247 17.0312H107.238V17.0362H107.247V17.0312Z" fill="#FE7D23"/>
<path d="M107.258 17.0366H107.249V17.0415H107.258V17.0366Z" fill="#FE7D23"/>
<path d="M107.264 17.0405V17.0457L107.259 17.0405H107.264Z" fill="#FE7D23"/>
<path d="M107.225 17.0166H107.219V17.0217H107.225V17.0166Z" fill="#FE7D23"/>
<path d="M107.229 17.022H107.223V17.0271H107.229V17.022Z" fill="#FE7D23"/>
<path d="M107.244 17.0312H107.238V17.0364H107.244V17.0312Z" fill="#FE7D23"/>
<path d="M107.249 17.0366H107.244V17.0418H107.249V17.0366Z" fill="#FE7D23"/>
<path d="M107.259 17.0405L107.264 17.046V17.0514H107.253V17.046H107.249V17.0405H107.259Z" fill="#FE7D23"/>
<path d="M107.225 17.0112H107.219V17.0164H107.225V17.0112Z" fill="#FE7D23"/>
<path d="M107.229 17.0166H107.223V17.0217H107.229V17.0166Z" fill="#FE7D23"/>
<path d="M107.24 17.0312H107.234V17.0364H107.24V17.0312Z" fill="#FE7D23"/>
<path d="M107.244 17.0366H107.238V17.0418H107.244V17.0366Z" fill="#FE7D23"/>
<path d="M107.253 17.0551H107.249V17.0511L107.244 17.0405H107.249V17.0458H107.253V17.0551Z" fill="#FE7D23"/>
<path d="M107.223 17.0071H107.219V17.002L107.223 17.0071Z" fill="#FE7D23"/>
<path d="M107.229 17.0112H107.223V17.0164H107.229V17.0112Z" fill="#FE7D23"/>
<path d="M107.234 17.022H107.229V17.0271H107.234V17.022Z" fill="#FE7D23"/>
<path d="M107.24 17.0312H107.234V17.0405H107.24V17.0312Z" fill="#FE7D23"/>
<path d="M107.249 17.0458V17.0604L107.238 17.0511V17.0405H107.244L107.249 17.0458Z" fill="#FE7D23"/>
<path d="M107.234 17.0166H107.229V17.0312H107.234V17.0166Z" fill="#FE7D23"/>
<path d="M107.238 17.0405V17.0511L107.234 17.0551V17.0405H107.238Z" fill="#FE7D23"/>
<path d="M107.234 17.002V17.0551L107.223 17.0604L107.229 17.0511V17.002H107.234Z" fill="#FE7D23"/>
<path d="M107.223 17.0259H107.229V17.0365L107.223 17.0405V17.0259Z" fill="#FE7D23"/>
<path d="M107.234 17.0112H107.229V17.0205H107.234V17.0112Z" fill="#FE7D23"/>
<path d="M107.24 16.9966H107.234V17.0017H107.24V16.9966Z" fill="#FE7D23"/>
<path d="M107.244 16.978V16.9873H107.238L107.244 16.978Z" fill="#FE7D23"/>
<path d="M107.279 17.002L110.761 14.8156C110.761 14.6656 110.8 14.5209 110.875 14.3749C111.099 13.9634 111.333 13.528 111.571 13.0833L107.279 17.002ZM107.279 17.002L110.761 14.8156C110.761 14.6656 110.8 14.5209 110.875 14.3749C111.099 13.9634 111.333 13.528 111.571 13.0833L107.279 17.002ZM107.279 17.002L110.761 14.8156C110.761 14.6656 110.8 14.5209 110.875 14.3749C111.099 13.9634 111.333 13.528 111.571 13.0833L107.279 17.002ZM107.279 17.002L110.761 14.8156C110.761 14.6656 110.8 14.5209 110.875 14.3749C111.099 13.9634 111.333 13.528 111.571 13.0833L107.279 17.002ZM104.4 14.9803C104.31 15.1634 104.236 15.3573 104.176 15.5564L107.204 16.9927L107.219 16.998L104.4 14.9803ZM107.279 17.002L110.761 14.8156C110.761 14.6656 110.8 14.5209 110.875 14.3749C111.099 13.9634 111.333 13.528 111.571 13.0833L107.279 17.002ZM103.952 16.5281C103.928 16.7166 103.913 16.9104 103.913 17.1042L107.2 17.0126L103.952 16.5294V16.5281ZM107.279 17.002L110.761 14.8156C110.761 14.6656 110.8 14.5209 110.875 14.3749C111.099 13.9634 111.333 13.528 111.571 13.0833L107.279 17.002ZM103.922 18.129C103.943 18.3414 103.986 18.5498 104.052 18.753L107.195 17.0352L107.21 17.0259L103.922 18.129ZM107.279 17.002L110.761 14.8156C110.761 14.6656 110.8 14.5209 110.875 14.3749C111.099 13.9634 111.333 13.528 111.571 13.0833L107.279 17.002ZM107.279 17.002L110.761 14.8156C110.761 14.6656 110.8 14.5209 110.875 14.3749C111.099 13.9634 111.333 13.528 111.571 13.0833L107.279 17.002ZM106.151 20.7946C106.38 20.8676 106.619 20.9101 106.862 20.93L107.225 17.0591L106.151 20.7946ZM107.279 17.002L110.761 14.8156C110.761 14.6656 110.8 14.5209 110.875 14.3749C111.099 13.9634 111.333 13.528 111.571 13.0833L107.279 17.002ZM107.279 17.002L110.761 14.8156C110.761 14.6656 110.8 14.5209 110.875 14.3749C111.099 13.9634 111.333 13.528 111.571 13.0833L107.279 17.002ZM107.279 17.002L110.761 14.8156C110.761 14.6656 110.8 14.5209 110.875 14.3749C111.099 13.9634 111.333 13.528 111.571 13.0833L107.279 17.002ZM107.279 17.002L110.761 14.8156C110.761 14.6656 110.8 14.5209 110.875 14.3749C111.099 13.9634 111.333 13.528 111.571 13.0833L107.279 17.002ZM107.279 17.002L110.761 14.8156C110.761 14.6656 110.8 14.5209 110.875 14.3749C111.099 13.9634 111.333 13.528 111.571 13.0833L107.279 17.002ZM115.222 14.8833C115.212 15.3666 114.81 15.7595 114.306 15.7595H111.974L107.283 17.0219L107.278 17.0272L121.826 15.7449V13.1032L115.221 14.8833H115.222ZM121.663 3.86793L115.248 9.73141C115.238 10.3991 115.233 11.1253 115.227 11.9231V12.0107L121.827 7.86497V4.99098C121.827 4.60335 121.772 4.22635 121.663 3.86926V3.86793ZM107.264 17.0458V17.0405H107.274L107.268 17.0352H107.278L107.268 17.0299L107.274 17.0246L107.268 17.0193H107.274L111.312 15.6652C111.064 15.5497 110.879 15.336 110.8 15.0851L107.274 17.01H107.268V17.0047L112.202 11.9058C113.073 10.2797 113.972 8.60172 114.669 7.21849C114.829 6.91317 115.305 7.02468 115.292 7.36849C115.277 7.8132 115.267 8.27383 115.256 8.75704L121.115 2.70506C120.423 1.70812 119.29 1.0258 117.991 0.915619L107.273 16.9914L107.263 17.0007V16.9954L116.604 0.902344H115.156C114.271 0.902344 113.426 1.17315 112.73 1.65768L107.264 16.9847L107.255 16.9901L107.479 9.73804L106.405 11.5421L107.245 16.9794L107.24 16.9887V16.998H107.234V16.9887L105.374 13.2731L104.957 13.9793L107.225 16.9834L104.827 14.1917L104.673 14.4532C104.609 14.5594 104.554 14.6656 104.494 14.7732V14.7785L107.214 16.9901L107.223 16.9954L107.229 17.0007V17.006H107.204L107.214 17.0113H107.223V17.0166H107.218V17.0219H107.208L107.199 17.0272H107.214V17.0325L107.208 17.0418H107.203L104.13 18.972C104.214 19.1804 104.318 19.3782 104.448 19.5627L107.197 17.0525L104.591 19.7525C104.736 19.9357 104.899 20.1003 105.084 20.2411L107.207 17.0525H107.212L105.283 20.3857C105.477 20.5212 105.685 20.6327 105.909 20.7189L107.212 17.0657L107.218 17.0458H107.223V17.0657L107.233 17.0604L107.238 17.0551L108.094 20.9446H108.89L107.248 17.0697L109.193 20.9446H110.182L107.258 17.0697L107.252 17.0604H107.258L110.585 20.9446H112.042L107.267 17.0604L112.699 20.9446H115.225V22.754L119.915 26.1112C120.825 25.6996 121.506 24.9018 121.741 23.9341L107.273 17.0551L107.263 17.0498L107.264 17.0458ZM115.227 12.6625V14.351L121.827 12.1395V9.05837L115.227 12.6625ZM107.279 17.002L110.761 14.8156C110.761 14.6656 110.8 14.5209 110.875 14.3749C111.099 13.9634 111.333 13.528 111.571 13.0833L107.279 17.002ZM124.254 16.5573L107.283 17.0312L107.278 17.0365L124.666 19.6145C124.874 19.2468 124.995 18.8313 124.999 18.3813C125.008 17.675 124.726 17.0272 124.252 16.5573H124.254ZM107.279 17.002L110.761 14.8156C110.761 14.6656 110.8 14.5209 110.875 14.3749C111.099 13.9634 111.333 13.528 111.571 13.0833L107.279 17.002ZM107.274 17.0405L121.827 22.9093V20.9406H122.335C122.877 20.9406 123.379 20.7853 123.802 20.5145L107.275 17.0405H107.274ZM107.279 17.002L110.761 14.8156C110.761 14.6656 110.8 14.5209 110.875 14.3749C111.099 13.9634 111.333 13.528 111.571 13.0833L107.279 17.002ZM115.242 23.5425C115.421 25.1541 116.824 26.4059 118.53 26.4059C118.605 26.4059 118.679 26.4006 118.754 26.3966L115.242 23.5425ZM107.279 17.002L110.761 14.8156C110.761 14.6656 110.8 14.5209 110.875 14.3749C111.099 13.9634 111.333 13.528 111.571 13.0833L107.279 17.002ZM107.279 17.002L110.761 14.8156C110.761 14.6656 110.8 14.5209 110.875 14.3749C111.099 13.9634 111.333 13.528 111.571 13.0833L107.279 17.002ZM107.234 17.0604L107.11 20.9406H107.836L107.234 17.0604ZM107.279 17.002L110.761 14.8156C110.761 14.6656 110.8 14.5209 110.875 14.3749C111.099 13.9634 111.333 13.528 111.571 13.0833L107.279 17.002ZM107.279 17.002L110.761 14.8156C110.761 14.6656 110.8 14.5209 110.875 14.3749C111.099 13.9634 111.333 13.528 111.571 13.0833L107.279 17.002ZM107.279 17.002L110.761 14.8156C110.761 14.6656 110.8 14.5209 110.875 14.3749C111.099 13.9634 111.333 13.528 111.571 13.0833L107.279 17.002ZM103.907 17.3073V17.825C103.907 17.8542 103.907 17.8835 103.913 17.9127L107.195 17.0219L103.907 17.3073ZM107.279 17.002L110.761 14.8156C110.761 14.6656 110.8 14.5209 110.875 14.3749C111.099 13.9634 111.333 13.528 111.571 13.0833L107.279 17.002ZM104.112 15.7542C104.057 15.9427 104.018 16.1365 103.988 16.3303L107.2 17.0033L104.112 15.7555V15.7542ZM107.279 17.002L110.761 14.8156C110.761 14.6656 110.8 14.5209 110.875 14.3749C111.099 13.9634 111.333 13.528 111.571 13.0833L107.279 17.002ZM107.279 17.002L110.761 14.8156C110.761 14.6656 110.8 14.5209 110.875 14.3749C111.099 13.9634 111.333 13.528 111.571 13.0833L107.279 17.002ZM106.14 11.9855L105.543 12.9917L107.234 16.9781L106.14 11.9855ZM107.279 17.002L110.761 14.8156C110.761 14.6656 110.8 14.5209 110.875 14.3749C111.099 13.9634 111.333 13.528 111.571 13.0833L107.279 17.002ZM108.035 8.80217L107.255 16.9874L111.069 3.6927L108.035 8.80217ZM107.279 17.002L110.761 14.8156C110.761 14.6656 110.8 14.5209 110.875 14.3749C111.099 13.9634 111.333 13.528 111.571 13.0833L107.279 17.002ZM107.279 17.002L110.761 14.8156C110.761 14.6656 110.8 14.5209 110.875 14.3749C111.099 13.9634 111.333 13.528 111.571 13.0833L107.279 17.002Z" fill="#FE7D23"/>
</g>
<defs>
<clipPath id="clip0_738_1857">
<rect width="125" height="26" fill="white" transform="translate(0 0.5)"/>
</clipPath>
</defs>
</svg>
