<svg width="88" height="18" viewBox="0 0 88 18" fill="none" xmlns="http://www.w3.org/2000/svg">
<g clip-path="url(#clip0_738_4916)">
<path d="M25.3446 0.125886C21.1269 0.211355 17.7499 3.49503 17.7499 7.55068V15.8734C17.7499 17.0479 18.7452 18 19.9731 18C21.2009 18 22.1962 17.0479 22.1962 15.8734V7.55068C22.1962 6.68496 22.5738 5.89184 23.1781 5.31653C23.7796 4.66494 24.6077 4.37729 25.5137 4.37729C27.3209 4.37729 28.8312 5.74847 28.8312 7.55068V15.8734C28.8312 17.0479 29.8265 18 31.0544 18C32.2822 18 33.2775 17.0479 33.2775 15.8734V7.74275C33.2775 3.56947 29.7074 0.0376594 25.3456 0.125886H25.3446Z" fill="#1585FA"/>
<path d="M13.3035 0.125C12.0757 0.125 11.0803 1.07711 11.0803 2.25162V10.5743C11.0803 11.44 10.7028 12.2331 10.0985 12.8084C9.49702 13.46 8.66886 13.7477 7.76287 13.7477C5.9557 13.7477 4.4454 12.3765 4.4454 10.5743V2.25162C4.4454 1.07711 3.45006 0.125 2.22222 0.125C0.994377 0.125 0 1.07711 0 2.25162V10.3822C0 14.5555 3.57015 18.0873 7.93196 17.9991C12.1497 17.9136 15.5267 14.63 15.5267 10.5743V2.25162C15.5267 1.07711 14.5314 0.125 13.3035 0.125Z" fill="#1585FA"/>
<path d="M40.1229 2.33617C40.1229 1.11497 39.088 0.125 37.8113 0.125C36.5347 0.125 35.4998 1.11497 35.4998 2.33617V15.7898C35.4998 17.011 36.5347 18.0009 37.8113 18.0009C39.088 18.0009 40.1229 17.011 40.1229 15.7898V2.33617Z" fill="#1585FA"/>
<path d="M56.4172 0.146945C55.2259 -0.29051 53.8885 0.278366 53.4312 1.41887L50.106 9.70387L46.7809 1.41887C46.3235 0.279285 44.9862 -0.29051 43.7948 0.146945C42.6035 0.584401 42.0079 1.86368 42.4652 3.00327L47.8886 16.5166C48.2489 17.4145 49.1549 17.9558 50.106 17.9328C51.0572 17.9558 51.9632 17.4145 52.3234 16.5166L57.7469 3.00327C58.2042 1.86368 57.6095 0.584401 56.4172 0.146945Z" fill="#1585FA"/>
<path d="M75.4784 11.4512H75.4827L75.4784 11.4551V11.4512Z" fill="#FE7D23"/>
<path d="M75.4822 11.4483L75.4851 11.4446V11.451H75.4822V11.4483Z" fill="#FE7D23"/>
<path d="M75.4888 11.4382H75.485V11.4447H75.4888V11.4382Z" fill="#FE7D23"/>
<path d="M75.4932 11.4346H75.4889V11.4385H75.4932V11.4346Z" fill="#FE7D23"/>
<path d="M75.4973 11.428H75.493V11.4319H75.4973V11.428Z" fill="#FE7D23"/>
<path d="M75.504 11.418V11.4209H75.4997L75.504 11.418Z" fill="#FE7D23"/>
<path d="M75.4717 11.4485H75.4754L75.4717 11.4551H75.468L75.4717 11.4485Z" fill="#FE7D23"/>
<path d="M75.4785 11.4409H75.4825L75.4785 11.4485H75.4756L75.4785 11.4409Z" fill="#FE7D23"/>
<path d="M75.4866 11.4382H75.4822V11.4422H75.4866V11.4382Z" fill="#FE7D23"/>
<path d="M75.4894 11.4346H75.485V11.4385H75.4894V11.4346Z" fill="#FE7D23"/>
<path d="M75.4935 11.4309H75.4891V11.4349H75.4935V11.4309Z" fill="#FE7D23"/>
<path d="M75.4973 11.4282H75.493V11.4322H75.4973V11.4282Z" fill="#FE7D23"/>
<path d="M75.5002 11.4246H75.4958V11.4285H75.5002V11.4246Z" fill="#FE7D23"/>
<path d="M75.4997 11.4209H75.504L75.4997 11.4249V11.4209Z" fill="#FE7D23"/>
<path d="M75.5035 11.418H75.5066L75.5035 11.421V11.418Z" fill="#FE7D23"/>
<path d="M75.5138 11.4116L75.5064 11.4182V11.4144L75.5138 11.4116Z" fill="#FE7D23"/>
<path d="M75.4756 11.4412H75.4785L75.4756 11.4485H75.4651L75.4756 11.4412Z" fill="#FE7D23"/>
<path d="M75.4853 11.4385H75.4784V11.4422H75.4853V11.4385Z" fill="#FE7D23"/>
<path d="M75.4894 11.4346H75.485V11.4385H75.4894V11.4346Z" fill="#FE7D23"/>
<path d="M75.4973 11.4309H75.493V11.4349H75.4973V11.4309Z" fill="#FE7D23"/>
<path d="M75.504 11.4282H75.4997V11.4322H75.504V11.4282Z" fill="#FE7D23"/>
<path d="M75.5146 11.4209V11.4249H75.5103L75.5146 11.4209Z" fill="#FE7D23"/>
<path d="M75.4716 11.4382H75.4785V11.4411H75.4755L75.4716 11.4382Z" fill="#FE7D23"/>
<path d="M75.4888 11.4346V11.4383H75.4784L75.4822 11.4346H75.4888Z" fill="#FE7D23"/>
<path d="M75.4999 11.4309H75.493V11.4347H75.4999V11.4309Z" fill="#FE7D23"/>
<path d="M75.5108 11.4282H75.5064V11.4322H75.5108V11.4282Z" fill="#FE7D23"/>
<path d="M75.506 11.4309V11.4346H75.4756L75.468 11.4309H75.506Z" fill="#FE7D23"/>
<path d="M75.485 11.4282V11.431H75.4754L75.4716 11.4246L75.4783 11.4282H75.485Z" fill="#FE7D23"/>
<path d="M75.5034 11.4309H75.493V11.4347H75.5034V11.4309Z" fill="#FE7D23"/>
<path d="M75.521 11.4383H75.5171L75.5141 11.4346L75.521 11.4383Z" fill="#FE7D23"/>
<path d="M75.4819 11.4208V11.4246H75.4753L75.4716 11.418L75.4819 11.4208Z" fill="#FE7D23"/>
<path d="M75.4893 11.4243H75.4824V11.4281H75.4893V11.4243Z" fill="#FE7D23"/>
<path d="M75.4961 11.428H75.4891V11.4317H75.4961V11.428Z" fill="#FE7D23"/>
<path d="M75.504 11.4309H75.4997V11.4349H75.504V11.4309Z" fill="#FE7D23"/>
<path d="M75.5108 11.4346H75.5064V11.4385H75.5108V11.4346Z" fill="#FE7D23"/>
<path d="M75.521 11.4411H75.5141V11.4382H75.5171L75.521 11.4411Z" fill="#FE7D23"/>
<path d="M75.489 11.4207V11.4244H75.4823V11.4207L75.4784 11.4143L75.4852 11.418L75.489 11.4207Z" fill="#FE7D23"/>
<path d="M75.4932 11.4243H75.4889V11.4283H75.4932V11.4243Z" fill="#FE7D23"/>
<path d="M75.4973 11.428H75.493V11.4319H75.4973V11.428Z" fill="#FE7D23"/>
<path d="M75.5079 11.4346H75.5035V11.4385H75.5079V11.4346Z" fill="#FE7D23"/>
<path d="M75.5108 11.4382H75.5064V11.4422H75.5108V11.4382Z" fill="#FE7D23"/>
<path d="M75.4928 11.4207V11.4244H75.4889V11.4207L75.485 11.418V11.4143L75.4928 11.4207Z" fill="#FE7D23"/>
<path d="M75.4971 11.4243H75.4928V11.4283H75.4971V11.4243Z" fill="#FE7D23"/>
<path d="M75.4999 11.428H75.4956V11.4319H75.4999V11.428Z" fill="#FE7D23"/>
<path d="M75.5079 11.4382H75.5036V11.4422H75.5079V11.4382Z" fill="#FE7D23"/>
<path d="M75.5108 11.4409H75.5064V11.4449H75.5108V11.4409Z" fill="#FE7D23"/>
<path d="M75.4959 11.4144V11.4208H75.493V11.408L75.4959 11.4144Z" fill="#FE7D23"/>
<path d="M75.4997 11.4209H75.4958V11.4273H75.4997V11.4209Z" fill="#FE7D23"/>
<path d="M75.5033 11.4282H75.4995V11.4347H75.5033V11.4282Z" fill="#FE7D23"/>
<path d="M75.5078 11.4382H75.5034V11.4422H75.5078V11.4382Z" fill="#FE7D23"/>
<path d="M75.5106 11.4448H75.5063V11.4488H75.5106V11.4448Z" fill="#FE7D23"/>
<path d="M75.5144 11.4512V11.4551L75.5101 11.4512H75.5144Z" fill="#FE7D23"/>
<path d="M75.4997 11.4144H75.4958L75.4997 11.408L75.5036 11.4144V11.4282H75.4997V11.4144Z" fill="#FE7D23"/>
<path d="M75.5073 11.4346H75.5035V11.4447H75.5073V11.4346Z" fill="#FE7D23"/>
<path d="M75.5106 11.4615H75.5063V11.4585L75.5106 11.4615Z" fill="#FE7D23"/>
<path d="M75.5074 11.4143H75.5035V11.4511H75.5074V11.4143Z" fill="#FE7D23"/>
<path d="M75.493 11.4613L75.4959 11.4585L75.493 11.4649V11.4613Z" fill="#FE7D23"/>
<path d="M75.4958 11.4512H75.5002L75.4958 11.4551V11.4512Z" fill="#FE7D23"/>
<path d="M75.4995 11.441L75.5033 11.4382V11.4447H75.4995V11.441Z" fill="#FE7D23"/>
<path d="M75.5034 11.4282L75.5063 11.4246V11.4347H75.5034V11.4282Z" fill="#FE7D23"/>
<path d="M75.514 11.4116L75.5102 11.4245H75.5063V11.4144L75.514 11.4116Z" fill="#FE7D23"/>
<path d="M75.4887 11.4585H75.4924V11.4613L75.485 11.4651L75.4887 11.4585Z" fill="#FE7D23"/>
<path d="M75.4999 11.4482H75.4956V11.4522H75.4999V11.4482Z" fill="#FE7D23"/>
<path d="M75.504 11.4409H75.4997V11.4449H75.504V11.4409Z" fill="#FE7D23"/>
<path d="M75.5075 11.4346H75.5036V11.441H75.5075V11.4346Z" fill="#FE7D23"/>
<path d="M75.5103 11.428H75.5064V11.4344H75.5103V11.428Z" fill="#FE7D23"/>
<path d="M75.5146 11.4243H75.5103V11.4283H75.5146V11.4243Z" fill="#FE7D23"/>
<path d="M75.521 11.418L75.5141 11.4246V11.4208L75.521 11.418Z" fill="#FE7D23"/>
<path d="M75.485 11.4588L75.4894 11.4548V11.4588H75.485Z" fill="#FE7D23"/>
<path d="M75.4889 11.4551L75.4932 11.4512V11.4551H75.4889Z" fill="#FE7D23"/>
<path d="M75.4971 11.4485H75.4928V11.4524H75.4971V11.4485Z" fill="#FE7D23"/>
<path d="M75.4999 11.4448H75.4956V11.4488H75.4999V11.4448Z" fill="#FE7D23"/>
<path d="M75.504 11.4412H75.4997V11.4451H75.504V11.4412Z" fill="#FE7D23"/>
<path d="M75.5079 11.4382H75.5036V11.4422H75.5079V11.4382Z" fill="#FE7D23"/>
<path d="M75.5108 11.4346H75.5064V11.4385H75.5108V11.4346Z" fill="#FE7D23"/>
<path d="M75.5146 11.4309H75.5103V11.4349H75.5146V11.4309Z" fill="#FE7D23"/>
<path d="M75.5184 11.4282H75.5141V11.4322H75.5184V11.4282Z" fill="#FE7D23"/>
<path d="M75.4784 11.4512H75.4827L75.4784 11.4551V11.4512Z" fill="#FE7D23"/>
<path d="M75.4932 11.4446H75.4889V11.4485H75.4932V11.4446Z" fill="#FE7D23"/>
<path d="M75.5003 11.4409H75.4959V11.4449H75.5003V11.4409Z" fill="#FE7D23"/>
<path d="M75.5079 11.4382H75.5035V11.4422H75.5079V11.4382Z" fill="#FE7D23"/>
<path d="M75.5133 11.4346H75.5064V11.4383H75.5133V11.4346Z" fill="#FE7D23"/>
<path d="M75.5172 11.4309L75.5141 11.4349V11.4309H75.5172Z" fill="#FE7D23"/>
<path d="M75.4716 11.4549L75.4785 11.4512L75.4755 11.4549H75.4716Z" fill="#FE7D23"/>
<path d="M75.4867 11.4482H75.4824V11.4522H75.4867V11.4482Z" fill="#FE7D23"/>
<path d="M75.4999 11.4446H75.493V11.4484H75.4999V11.4446Z" fill="#FE7D23"/>
<path d="M75.5139 11.4409H75.5035V11.4447H75.5139V11.4409Z" fill="#FE7D23"/>
<path d="M75.5275 11.4382L75.5246 11.441H75.5141V11.4382H75.5275Z" fill="#FE7D23"/>
<path d="M75.5268 11.4448L75.524 11.4485H75.485V11.4448H75.5164L75.524 11.4412L75.5268 11.4448Z" fill="#FE7D23"/>
<path d="M75.4995 11.4412H75.4891V11.4449H75.4995V11.4412Z" fill="#FE7D23"/>
<path d="M75.5239 11.4485H75.5062V11.4448H75.5165L75.5239 11.4485Z" fill="#FE7D23"/>
<path d="M75.4865 11.4382H75.4822V11.4422H75.4865V11.4382Z" fill="#FE7D23"/>
<path d="M75.4931 11.4409H75.4888V11.4449H75.4931V11.4409Z" fill="#FE7D23"/>
<path d="M75.5028 11.4446H75.4958V11.4484H75.5028V11.4446Z" fill="#FE7D23"/>
<path d="M75.5105 11.4482H75.5035V11.452H75.5105V11.4482Z" fill="#FE7D23"/>
<path d="M75.5206 11.4587L75.514 11.4549L75.5103 11.4512H75.5169L75.5206 11.4587Z" fill="#FE7D23"/>
<path d="M75.4865 11.4346H75.4822V11.4385H75.4865V11.4346Z" fill="#FE7D23"/>
<path d="M75.4895 11.4382H75.4852V11.4422H75.4895V11.4382Z" fill="#FE7D23"/>
<path d="M75.5002 11.4446H75.4958V11.4485H75.5002V11.4446Z" fill="#FE7D23"/>
<path d="M75.504 11.4482H75.4997V11.4522H75.504V11.4482Z" fill="#FE7D23"/>
<path d="M75.5139 11.4549V11.4587H75.5064V11.4549H75.5035V11.4512H75.5102L75.5139 11.4549Z" fill="#FE7D23"/>
<path d="M75.4865 11.4309H75.4822V11.4349H75.4865V11.4309Z" fill="#FE7D23"/>
<path d="M75.4895 11.4346H75.4852V11.4385H75.4895V11.4346Z" fill="#FE7D23"/>
<path d="M75.4971 11.4446H75.4927V11.4485H75.4971V11.4446Z" fill="#FE7D23"/>
<path d="M75.5002 11.4485H75.4958V11.4524H75.5002V11.4485Z" fill="#FE7D23"/>
<path d="M75.5065 11.4613H75.5036V11.4585L75.4997 11.4512H75.5036V11.4548H75.5065V11.4613Z" fill="#FE7D23"/>
<path d="M75.5103 11.4612V11.4685L75.5064 11.4612H75.5103Z" fill="#FE7D23"/>
<path d="M75.4853 11.4285H75.4822V11.4246L75.4853 11.4285Z" fill="#FE7D23"/>
<path d="M75.4895 11.4309H75.4852V11.4349H75.4895V11.4309Z" fill="#FE7D23"/>
<path d="M75.4931 11.4382H75.4888V11.4422H75.4931V11.4382Z" fill="#FE7D23"/>
<path d="M75.4966 11.4448H75.4927V11.4513H75.4966V11.4448Z" fill="#FE7D23"/>
<path d="M75.5036 11.4585V11.4686L75.4958 11.4585V11.4512H75.4997L75.5036 11.4585Z" fill="#FE7D23"/>
<path d="M75.493 11.4346H75.4891V11.4447H75.493V11.4346Z" fill="#FE7D23"/>
<path d="M75.4956 11.4512V11.4585L75.4927 11.465V11.4512H75.4956Z" fill="#FE7D23"/>
<path d="M75.4928 11.4246V11.4613L75.485 11.465L75.4889 11.4586V11.4246H75.4928Z" fill="#FE7D23"/>
<path d="M75.4823 11.4512H75.4852V11.4585L75.4784 11.465L75.4823 11.4512Z" fill="#FE7D23"/>
<path d="M75.485 11.4412H75.4888V11.4485L75.485 11.4513V11.4412Z" fill="#FE7D23"/>
<path d="M75.4928 11.4309H75.4889V11.4373H75.4928V11.4309Z" fill="#FE7D23"/>
<path d="M75.4973 11.4209H75.493V11.4249H75.4973V11.4209Z" fill="#FE7D23"/>
<path d="M75.4998 11.408V11.4144H75.4959L75.4998 11.408Z" fill="#FE7D23"/>
<path d="M73.4273 6.62151L70.9515 0.880371C72.6741 1.81778 73.5493 3.4325 73.5493 5.31834C73.5493 5.78428 73.5148 6.21255 73.4264 6.62151H73.4273Z" fill="#FE7D23"/>
<path d="M72.8768 8.01113L66.7357 0.0036761C66.8193 0 66.9106 0 66.998 0C68.1048 0 69.0742 0.15072 69.9043 0.428265L73.2967 7.10038C73.1987 7.40825 73.0584 7.70969 72.8768 8.01113Z" fill="#FE7D23"/>
<path d="M65.1956 4.17687C65.1216 4.30737 65.0592 4.45809 65.0035 4.61892C64.9218 4.86614 64.7921 5.08762 64.6259 5.27878C64.2291 5.73462 63.5374 5.83847 62.9801 5.57838L61.3401 4.81284C60.9116 4.61249 60.6215 4.18974 60.6599 3.73482C60.6839 3.45728 60.7665 3.17697 60.9174 2.9077C61.1451 2.50241 61.4285 2.11734 61.7753 1.77271L65.1966 4.17779L65.1956 4.17687Z" fill="#FE7D23"/>
<path d="M65.7029 3.59694L62.5939 1.10822C63.3606 0.602759 64.3483 0.23423 65.6116 0.079834L72.7231 8.24536C72.5905 8.43927 72.433 8.63686 72.2543 8.83445L68.4132 5.76308C68.4449 5.59857 68.4584 5.42855 68.4584 5.24383C68.4584 4.05829 67.9223 3.31755 66.7425 3.31755C66.3188 3.31755 65.9758 3.4113 65.7029 3.5951V3.59694Z" fill="#FE7D23"/>
<path d="M71.5154 9.5688L67.2507 7.57636C67.7301 7.14074 68.0529 6.74924 68.2412 6.32373L72.0823 9.02658C71.9103 9.20395 71.7249 9.385 71.5154 9.5688Z" fill="#FE7D23"/>
<path d="M70.4932 10.396L65.0833 9.27753C65.2062 9.18746 65.3282 9.09648 65.4541 9.00274C65.972 8.62134 66.4139 8.2859 66.7847 7.97803L71.2907 9.76277C71.0495 9.9668 70.7834 10.1782 70.4923 10.396H70.4932Z" fill="#FE7D23"/>
<path d="M68.7562 11.6155L62.0444 11.7993C62.6468 11.1495 63.4096 10.5264 64.3656 9.80957L70.1397 10.6532C69.9225 10.8076 69.692 10.9685 69.446 11.132C69.2049 11.2966 68.9772 11.4574 68.7562 11.6145V11.6155Z" fill="#FE7D23"/>
<path d="M66.5993 13.7926L60.3458 15.4506C60.3458 15.4267 60.3496 15.4074 60.3525 15.3835C60.5312 14.2751 60.8569 13.4204 61.3642 12.6567L68.1634 12.0676C67.5543 12.5565 67.0566 13.0289 66.6963 13.4949C66.6224 13.5886 66.5916 13.6925 66.5983 13.7926H66.5993Z" fill="#FE7D23"/>
<path d="M70.2271 14.265L63.3962 17.9356H62.6333C61.5342 17.9356 60.6897 17.3061 60.4169 16.4082L66.9711 14.2476C67.0134 14.2577 67.0585 14.2641 67.1075 14.2641H70.2271V14.265Z" fill="#FE7D23"/>
<path d="M72.261 14.3312L68.2479 17.9347H64.9775L70.9159 14.2642H71.7422C71.9238 14.2642 72.0957 14.2881 72.26 14.3312H72.261Z" fill="#FE7D23"/>
<path d="M73.1641 14.868L71.0841 17.9357H69.0915L72.5406 14.4324C72.7789 14.5325 72.9921 14.6833 73.1641 14.868Z" fill="#FE7D23"/>
<path d="M73.6406 16.3815C73.4936 17.2758 72.6914 17.9356 71.7431 17.9356H71.6595L73.3437 15.0784C73.5993 15.4469 73.7184 15.9027 73.6416 16.3815H73.6406Z" fill="#FE7D23"/>
<path d="M75.4785 11.4512H75.4828L75.4785 11.4551V11.4512Z" fill="#FE7D23"/>
<path d="M75.4867 11.4482H75.4824V11.4522H75.4867V11.4482Z" fill="#FE7D23"/>
<path d="M75.489 11.4382H75.4852V11.4447H75.489V11.4382Z" fill="#FE7D23"/>
<path d="M75.4935 11.4346H75.4891V11.4385H75.4935V11.4346Z" fill="#FE7D23"/>
<path d="M75.4972 11.428H75.4929V11.4319H75.4972V11.428Z" fill="#FE7D23"/>
<path d="M75.504 11.418V11.4209H75.4997L75.504 11.418Z" fill="#FE7D23"/>
<path d="M75.4754 11.4485L75.4717 11.4551H75.468L75.4717 11.4485H75.4754Z" fill="#FE7D23"/>
<path d="M75.4826 11.4409L75.4786 11.4485H75.4756L75.4786 11.4409H75.4826Z" fill="#FE7D23"/>
<path d="M75.4866 11.4382H75.4822V11.4422H75.4866V11.4382Z" fill="#FE7D23"/>
<path d="M75.4894 11.4346H75.4851V11.4385H75.4894V11.4346Z" fill="#FE7D23"/>
<path d="M75.4932 11.4309H75.4889V11.4349H75.4932V11.4309Z" fill="#FE7D23"/>
<path d="M75.4973 11.4282H75.493V11.4322H75.4973V11.4282Z" fill="#FE7D23"/>
<path d="M75.5002 11.4246H75.4958V11.4285H75.5002V11.4246Z" fill="#FE7D23"/>
<path d="M75.4998 11.4209H75.5041L75.4998 11.4249V11.4209Z" fill="#FE7D23"/>
<path d="M75.5035 11.418H75.5066L75.5035 11.421V11.418Z" fill="#FE7D23"/>
<path d="M75.5139 11.4116L75.5065 11.4182V11.4144L75.5139 11.4116Z" fill="#FE7D23"/>
<path d="M75.4854 11.4385H75.4785V11.4422H75.4854V11.4385Z" fill="#FE7D23"/>
<path d="M75.4895 11.4346H75.4852V11.4385H75.4895V11.4346Z" fill="#FE7D23"/>
<path d="M75.4972 11.4309H75.4929V11.4349H75.4972V11.4309Z" fill="#FE7D23"/>
<path d="M75.504 11.4282H75.4997V11.4322H75.504V11.4282Z" fill="#FE7D23"/>
<path d="M75.5146 11.4209V11.4249H75.5103L75.5146 11.4209Z" fill="#FE7D23"/>
<path d="M75.4888 11.4346V11.4383H75.4785L75.4822 11.4346H75.4888Z" fill="#FE7D23"/>
<path d="M75.4998 11.4309H75.4929V11.4347H75.4998V11.4309Z" fill="#FE7D23"/>
<path d="M75.5108 11.4282H75.5064V11.4322H75.5108V11.4282Z" fill="#FE7D23"/>
<path d="M75.5065 11.4309H75.4822V11.4346H75.5065V11.4309Z" fill="#FE7D23"/>
<path d="M75.5034 11.4309H75.493V11.4347H75.5034V11.4309Z" fill="#FE7D23"/>
<path d="M75.517 11.4385H75.5139V11.4346L75.517 11.4385Z" fill="#FE7D23"/>
<path d="M75.4892 11.4246H75.4822V11.4283H75.4892V11.4246Z" fill="#FE7D23"/>
<path d="M75.4958 11.4282H75.4889V11.432H75.4958V11.4282Z" fill="#FE7D23"/>
<path d="M75.5041 11.4309H75.4998V11.4349H75.5041V11.4309Z" fill="#FE7D23"/>
<path d="M75.5108 11.4346H75.5064V11.4385H75.5108V11.4346Z" fill="#FE7D23"/>
<path d="M75.521 11.4411H75.5141V11.4382H75.5171L75.521 11.4411Z" fill="#FE7D23"/>
<path d="M75.4932 11.4246H75.4889V11.4285H75.4932V11.4246Z" fill="#FE7D23"/>
<path d="M75.4971 11.4282H75.4928V11.4322H75.4971V11.4282Z" fill="#FE7D23"/>
<path d="M75.5079 11.4346H75.5035V11.4385H75.5079V11.4346Z" fill="#FE7D23"/>
<path d="M75.5108 11.4382H75.5065V11.4422H75.5108V11.4382Z" fill="#FE7D23"/>
<path d="M75.4932 11.4209H75.4889V11.4249H75.4932V11.4209Z" fill="#FE7D23"/>
<path d="M75.4971 11.4246H75.4928V11.4285H75.4971V11.4246Z" fill="#FE7D23"/>
<path d="M75.4999 11.4282H75.4955V11.4322H75.4999V11.4282Z" fill="#FE7D23"/>
<path d="M75.5079 11.4385H75.5035V11.4424H75.5079V11.4385Z" fill="#FE7D23"/>
<path d="M75.5108 11.4412H75.5065V11.4451H75.5108V11.4412Z" fill="#FE7D23"/>
<path d="M75.4997 11.4209H75.4958V11.4273H75.4997V11.4209Z" fill="#FE7D23"/>
<path d="M75.5033 11.4282H75.4995V11.4347H75.5033V11.4282Z" fill="#FE7D23"/>
<path d="M75.5078 11.4385H75.5035V11.4424H75.5078V11.4385Z" fill="#FE7D23"/>
<path d="M75.5106 11.4448H75.5063V11.4488H75.5106V11.4448Z" fill="#FE7D23"/>
<path d="M75.5144 11.4512V11.4551L75.5101 11.4512H75.5144Z" fill="#FE7D23"/>
<path d="M75.5036 11.4144V11.4282H75.4997V11.4144H75.4958L75.4997 11.408L75.5036 11.4144Z" fill="#FE7D23"/>
<path d="M75.5073 11.4346H75.5035V11.4447H75.5073V11.4346Z" fill="#FE7D23"/>
<path d="M75.5106 11.4615H75.5063V11.4585L75.5106 11.4615Z" fill="#FE7D23"/>
<path d="M75.5074 11.4143H75.5035V11.4511H75.5074V11.4143Z" fill="#FE7D23"/>
<path d="M75.493 11.4613L75.4959 11.4585L75.493 11.4649V11.4613Z" fill="#FE7D23"/>
<path d="M75.4958 11.4512H75.5002L75.4958 11.4551V11.4512Z" fill="#FE7D23"/>
<path d="M75.4995 11.441L75.5033 11.4382V11.4447H75.4995V11.441Z" fill="#FE7D23"/>
<path d="M75.5034 11.4282L75.5063 11.4246V11.4347H75.5034V11.4282Z" fill="#FE7D23"/>
<path d="M75.514 11.4116L75.5102 11.4245H75.5063V11.4144L75.514 11.4116Z" fill="#FE7D23"/>
<path d="M75.4925 11.4585V11.4613L75.4851 11.4651L75.4888 11.4585H75.4925Z" fill="#FE7D23"/>
<path d="M75.5 11.4485H75.4957V11.4524H75.5V11.4485Z" fill="#FE7D23"/>
<path d="M75.5041 11.4412H75.4998V11.4451H75.5041V11.4412Z" fill="#FE7D23"/>
<path d="M75.5075 11.4346H75.5036V11.441H75.5075V11.4346Z" fill="#FE7D23"/>
<path d="M75.5103 11.4282H75.5064V11.4347H75.5103V11.4282Z" fill="#FE7D23"/>
<path d="M75.5146 11.4246H75.5103V11.4285H75.5146V11.4246Z" fill="#FE7D23"/>
<path d="M75.4851 11.4588L75.4894 11.4548V11.4588H75.4851Z" fill="#FE7D23"/>
<path d="M75.489 11.4551L75.4934 11.4512V11.4551H75.489Z" fill="#FE7D23"/>
<path d="M75.4971 11.4485H75.4928V11.4524H75.4971V11.4485Z" fill="#FE7D23"/>
<path d="M75.5 11.4448H75.4957V11.4488H75.5V11.4448Z" fill="#FE7D23"/>
<path d="M75.5041 11.4412H75.4998V11.4451H75.5041V11.4412Z" fill="#FE7D23"/>
<path d="M75.5079 11.4382H75.5036V11.4422H75.5079V11.4382Z" fill="#FE7D23"/>
<path d="M75.5108 11.4346H75.5064V11.4385H75.5108V11.4346Z" fill="#FE7D23"/>
<path d="M75.5146 11.4309H75.5103V11.4349H75.5146V11.4309Z" fill="#FE7D23"/>
<path d="M75.5184 11.4282H75.5141V11.4322H75.5184V11.4282Z" fill="#FE7D23"/>
<path d="M75.4785 11.4512H75.4828L75.4785 11.4551V11.4512Z" fill="#FE7D23"/>
<path d="M75.4935 11.4446H75.4891V11.4485H75.4935V11.4446Z" fill="#FE7D23"/>
<path d="M75.5002 11.4409H75.4958V11.4449H75.5002V11.4409Z" fill="#FE7D23"/>
<path d="M75.5079 11.4382H75.5035V11.4422H75.5079V11.4382Z" fill="#FE7D23"/>
<path d="M75.5133 11.4346H75.5064V11.4383H75.5133V11.4346Z" fill="#FE7D23"/>
<path d="M75.5141 11.4309H75.5172L75.5141 11.4349V11.4309Z" fill="#FE7D23"/>
<path d="M75.4788 11.4512V11.4551H75.4756L75.4788 11.4512Z" fill="#FE7D23"/>
<path d="M75.4866 11.4482H75.4823V11.4522H75.4866V11.4482Z" fill="#FE7D23"/>
<path d="M75.5 11.4446H75.493V11.4484H75.5V11.4446Z" fill="#FE7D23"/>
<path d="M75.514 11.4409H75.5036V11.4447H75.514V11.4409Z" fill="#FE7D23"/>
<path d="M75.5171 11.4382L75.5211 11.4411H75.5142V11.4382H75.5171Z" fill="#FE7D23"/>
<path d="M75.524 11.4485H75.4851V11.4448H75.5165L75.524 11.4485Z" fill="#FE7D23"/>
<path d="M75.4993 11.4412H75.4889V11.4449H75.4993V11.4412Z" fill="#FE7D23"/>
<path d="M75.5242 11.4485H75.5065V11.4448H75.5167L75.5242 11.4485Z" fill="#FE7D23"/>
<path d="M75.4866 11.4382H75.4822V11.4422H75.4866V11.4382Z" fill="#FE7D23"/>
<path d="M75.4932 11.4409H75.4889V11.4449H75.4932V11.4409Z" fill="#FE7D23"/>
<path d="M75.5028 11.4446H75.4959V11.4484H75.5028V11.4446Z" fill="#FE7D23"/>
<path d="M75.5105 11.4482H75.5035V11.452H75.5105V11.4482Z" fill="#FE7D23"/>
<path d="M75.5146 11.4512V11.4551L75.5103 11.4512H75.5146Z" fill="#FE7D23"/>
<path d="M75.4866 11.4346H75.4822V11.4385H75.4866V11.4346Z" fill="#FE7D23"/>
<path d="M75.4895 11.4382H75.4852V11.4422H75.4895V11.4382Z" fill="#FE7D23"/>
<path d="M75.5003 11.4446H75.4959V11.4485H75.5003V11.4446Z" fill="#FE7D23"/>
<path d="M75.5041 11.4482H75.4998V11.4522H75.5041V11.4482Z" fill="#FE7D23"/>
<path d="M75.5102 11.4512L75.5139 11.4549V11.4587H75.5064V11.4549H75.5035V11.4512H75.5102Z" fill="#FE7D23"/>
<path d="M75.4866 11.4309H75.4822V11.4349H75.4866V11.4309Z" fill="#FE7D23"/>
<path d="M75.4895 11.4346H75.4852V11.4385H75.4895V11.4346Z" fill="#FE7D23"/>
<path d="M75.4971 11.4446H75.4927V11.4485H75.4971V11.4446Z" fill="#FE7D23"/>
<path d="M75.5003 11.4485H75.4959V11.4524H75.5003V11.4485Z" fill="#FE7D23"/>
<path d="M75.5065 11.4613H75.5036V11.4585L75.4998 11.4512H75.5036V11.4548H75.5065V11.4613Z" fill="#FE7D23"/>
<path d="M75.4854 11.4285H75.4822V11.4246L75.4854 11.4285Z" fill="#FE7D23"/>
<path d="M75.4895 11.4309H75.4852V11.4349H75.4895V11.4309Z" fill="#FE7D23"/>
<path d="M75.4932 11.4382H75.4889V11.4422H75.4932V11.4382Z" fill="#FE7D23"/>
<path d="M75.4966 11.4448H75.4927V11.4513H75.4966V11.4448Z" fill="#FE7D23"/>
<path d="M75.5036 11.4548V11.465L75.4959 11.4585V11.4512H75.4998L75.5036 11.4548Z" fill="#FE7D23"/>
<path d="M75.4928 11.4346H75.4889V11.4447H75.4928V11.4346Z" fill="#FE7D23"/>
<path d="M75.4957 11.4512V11.4585L75.4928 11.4613V11.4512H75.4957Z" fill="#FE7D23"/>
<path d="M75.4928 11.4246V11.4613L75.4851 11.465L75.489 11.4586V11.4246H75.4928Z" fill="#FE7D23"/>
<path d="M75.4851 11.4412H75.489V11.4485L75.4851 11.4513V11.4412Z" fill="#FE7D23"/>
<path d="M75.4929 11.4309H75.489V11.4373H75.4929V11.4309Z" fill="#FE7D23"/>
<path d="M75.4971 11.4209H75.4928V11.4249H75.4971V11.4209Z" fill="#FE7D23"/>
<path d="M75.4995 11.408V11.4144H75.4957L75.4995 11.408Z" fill="#FE7D23"/>
<path d="M75.5246 11.4245L77.9755 9.91085C77.9755 9.807 78.0034 9.70683 78.0562 9.60574C78.2138 9.32084 78.3781 9.0194 78.5462 8.71153L75.5246 11.4245ZM75.5246 11.4245L77.9755 9.91085C77.9755 9.807 78.0034 9.70683 78.0562 9.60574C78.2138 9.32084 78.3781 9.0194 78.5462 8.71153L75.5246 11.4245ZM75.5246 11.4245L77.9755 9.91085C77.9755 9.807 78.0034 9.70683 78.0562 9.60574C78.2138 9.32084 78.3781 9.0194 78.5462 8.71153L75.5246 11.4245ZM75.5246 11.4245L77.9755 9.91085C77.9755 9.807 78.0034 9.70683 78.0562 9.60574C78.2138 9.32084 78.3781 9.0194 78.5462 8.71153L75.5246 11.4245ZM73.4975 10.0248C73.4341 10.1516 73.3822 10.2858 73.3399 10.4237L75.4718 11.4181L75.4824 11.4217L73.4975 10.0248ZM75.5246 11.4245L77.9755 9.91085C77.9755 9.807 78.0034 9.70683 78.0562 9.60574C78.2138 9.32084 78.3781 9.0194 78.5462 8.71153L75.5246 11.4245ZM73.1823 11.0964C73.165 11.2269 73.1545 11.3611 73.1545 11.4952L75.4689 11.4318L73.1823 11.0973V11.0964ZM75.5246 11.4245L77.9755 9.91085C77.9755 9.807 78.0034 9.70683 78.0562 9.60574C78.2138 9.32084 78.3781 9.0194 78.5462 8.71153L75.5246 11.4245ZM73.1612 12.2047C73.1756 12.3518 73.2064 12.4961 73.2525 12.6367L75.4651 11.4475L75.4757 11.441L73.1612 12.2047ZM75.5246 11.4245L77.9755 9.91085C77.9755 9.807 78.0034 9.70683 78.0562 9.60574C78.2138 9.32084 78.3781 9.0194 78.5462 8.71153L75.5246 11.4245ZM75.5246 11.4245L77.9755 9.91085C77.9755 9.807 78.0034 9.70683 78.0562 9.60574C78.2138 9.32084 78.3781 9.0194 78.5462 8.71153L75.5246 11.4245ZM74.7301 14.0501C74.8915 14.1007 75.0596 14.1301 75.2307 14.1439L75.4862 11.464L74.7301 14.0501ZM75.5246 11.4245L77.9755 9.91085C77.9755 9.807 78.0034 9.70683 78.0562 9.60574C78.2138 9.32084 78.3781 9.0194 78.5462 8.71153L75.5246 11.4245ZM75.5246 11.4245L77.9755 9.91085C77.9755 9.807 78.0034 9.70683 78.0562 9.60574C78.2138 9.32084 78.3781 9.0194 78.5462 8.71153L75.5246 11.4245ZM75.5246 11.4245L77.9755 9.91085C77.9755 9.807 78.0034 9.70683 78.0562 9.60574C78.2138 9.32084 78.3781 9.0194 78.5462 8.71153L75.5246 11.4245ZM75.5246 11.4245L77.9755 9.91085C77.9755 9.807 78.0034 9.70683 78.0562 9.60574C78.2138 9.32084 78.3781 9.0194 78.5462 8.71153L75.5246 11.4245ZM75.5246 11.4245L77.9755 9.91085C77.9755 9.807 78.0034 9.70683 78.0562 9.60574C78.2138 9.32084 78.3781 9.0194 78.5462 8.71153L75.5246 11.4245ZM81.1162 9.95772C81.1095 10.2922 80.8261 10.5643 80.4716 10.5643H78.8296L75.5275 11.4383L75.5237 11.4419L85.7653 10.5542V8.72531L81.1153 9.95772H81.1162ZM85.651 2.33166L81.1345 6.39099C81.1277 6.85326 81.1239 7.35597 81.1201 7.9083V7.96896L85.7663 5.09884V3.10916C85.7663 2.8408 85.7278 2.5798 85.651 2.33258V2.33166ZM75.5141 11.4548V11.4511H75.5208L75.517 11.4475H75.5237L75.517 11.4438L75.5208 11.4401L75.517 11.4364H75.5208L78.3637 10.499C78.1888 10.4191 78.0591 10.2711 78.0034 10.0974L75.5208 11.43H75.517V11.4263L78.9901 7.89635C79.603 6.77055 80.2362 5.6089 80.7271 4.65128C80.8395 4.4399 81.1748 4.5171 81.1652 4.75513C81.1547 5.063 81.1479 5.3819 81.1402 5.71643L85.2647 1.5266C84.7776 0.836412 83.9802 0.364034 83.0656 0.287755L75.5198 11.4171L75.5131 11.4236V11.4199L82.0895 0.278564H81.0701C80.4466 0.278564 79.8519 0.466045 79.3619 0.801489L75.5141 11.4125L75.5074 11.4162L75.6649 6.39559L74.9088 7.64454L75.5006 11.4089L75.4968 11.4153V11.4217H75.4929V11.4153L74.1834 8.84295L73.8895 9.33187L75.4862 11.4116L73.7982 9.47891L73.6896 9.65996C73.6445 9.73348 73.606 9.807 73.5638 9.88144V9.88512L75.4785 11.4162L75.4853 11.4199L75.4891 11.4236V11.4272H75.4718L75.4785 11.4309H75.4853V11.4346H75.4814V11.4383H75.4747L75.468 11.4419H75.4785V11.4456L75.4747 11.4521H75.4708L73.3072 12.7883C73.3668 12.9326 73.4398 13.0695 73.5311 13.1973L75.467 11.4594L73.632 13.3287C73.7338 13.4555 73.8491 13.5695 73.9788 13.6669L75.4737 11.4594H75.4776L74.1191 13.7671C74.2555 13.8608 74.4025 13.938 74.5601 13.9978L75.4776 11.4686L75.4814 11.4548H75.4853V11.4686L75.492 11.4649L75.4958 11.4612L76.0982 14.154H76.6583L75.5026 11.4714L76.8716 14.154H77.5682L75.5093 11.4714L75.5054 11.4649H75.5093L77.8516 14.154H78.8777L75.516 11.4649L79.3398 14.154H81.1181V15.4066L84.4202 17.7308C85.0611 17.4459 85.5405 16.8936 85.7057 16.2236L75.5198 11.4612L75.5131 11.4576L75.5141 11.4548ZM81.1201 8.4202V9.58919L85.7663 8.0581V5.92505L81.1201 8.4202ZM75.5246 11.4245L77.9755 9.91085C77.9755 9.807 78.0034 9.70683 78.0562 9.60574C78.2138 9.32084 78.3781 9.0194 78.5462 8.71153L75.5246 11.4245ZM87.4745 11.1166L75.5275 11.4447L75.5237 11.4484L87.7646 13.2331C87.9116 12.9786 87.9962 12.6909 87.999 12.3793C88.0058 11.8904 87.8069 11.4419 87.4735 11.1166H87.4745ZM75.5246 11.4245L77.9755 9.91085C77.9755 9.807 78.0034 9.70683 78.0562 9.60574C78.2138 9.32084 78.3781 9.0194 78.5462 8.71153L75.5246 11.4245ZM75.5208 11.4511L85.7663 15.5141V14.1512H86.1237C86.5051 14.1512 86.8586 14.0437 87.1565 13.8562L75.5218 11.4511H75.5208ZM75.5246 11.4245L77.9755 9.91085C77.9755 9.807 78.0034 9.70683 78.0562 9.60574C78.2138 9.32084 78.3781 9.0194 78.5462 8.71153L75.5246 11.4245ZM81.1306 15.9525C81.2565 17.0682 82.2441 17.9348 83.4451 17.9348C83.4979 17.9348 83.5498 17.9312 83.6026 17.9284L81.1306 15.9525ZM75.5246 11.4245L77.9755 9.91085C77.9755 9.807 78.0034 9.70683 78.0562 9.60574C78.2138 9.32084 78.3781 9.0194 78.5462 8.71153L75.5246 11.4245ZM75.5246 11.4245L77.9755 9.91085C77.9755 9.807 78.0034 9.70683 78.0562 9.60574C78.2138 9.32084 78.3781 9.0194 78.5462 8.71153L75.5246 11.4245ZM75.4929 11.4649L75.4055 14.1512H75.9166L75.4929 11.4649ZM75.5246 11.4245L77.9755 9.91085C77.9755 9.807 78.0034 9.70683 78.0562 9.60574C78.2138 9.32084 78.3781 9.0194 78.5462 8.71153L75.5246 11.4245ZM75.5246 11.4245L77.9755 9.91085C77.9755 9.807 78.0034 9.70683 78.0562 9.60574C78.2138 9.32084 78.3781 9.0194 78.5462 8.71153L75.5246 11.4245ZM75.5246 11.4245L77.9755 9.91085C77.9755 9.807 78.0034 9.70683 78.0562 9.60574C78.2138 9.32084 78.3781 9.0194 78.5462 8.71153L75.5246 11.4245ZM73.1506 11.6359V11.9943C73.1506 12.0145 73.1506 12.0347 73.1545 12.0549L75.4651 11.4383L73.1506 11.6359ZM75.5246 11.4245L77.9755 9.91085C77.9755 9.807 78.0034 9.70683 78.0562 9.60574C78.2138 9.32084 78.3781 9.0194 78.5462 8.71153L75.5246 11.4245ZM73.2947 10.5606C73.2563 10.6911 73.2285 10.8253 73.2073 10.9595L75.4689 11.4254L73.2947 10.5615V10.5606ZM75.5246 11.4245L77.9755 9.91085C77.9755 9.807 78.0034 9.70683 78.0562 9.60574C78.2138 9.32084 78.3781 9.0194 78.5462 8.71153L75.5246 11.4245ZM75.5246 11.4245L77.9755 9.91085C77.9755 9.807 78.0034 9.70683 78.0562 9.60574C78.2138 9.32084 78.3781 9.0194 78.5462 8.71153L75.5246 11.4245ZM74.7224 7.95149L74.3026 8.64811L75.4929 11.4079L74.7224 7.95149ZM75.5246 11.4245L77.9755 9.91085C77.9755 9.807 78.0034 9.70683 78.0562 9.60574C78.2138 9.32084 78.3781 9.0194 78.5462 8.71153L75.5246 11.4245ZM76.0569 5.74767L75.5074 11.4144L78.1927 2.21035L76.0569 5.74767ZM75.5246 11.4245L77.9755 9.91085C77.9755 9.807 78.0034 9.70683 78.0562 9.60574C78.2138 9.32084 78.3781 9.0194 78.5462 8.71153L75.5246 11.4245ZM75.5246 11.4245L77.9755 9.91085C77.9755 9.807 78.0034 9.70683 78.0562 9.60574C78.2138 9.32084 78.3781 9.0194 78.5462 8.71153L75.5246 11.4245Z" fill="#FE7D23"/>
</g>
<defs>
<clipPath id="clip0_738_4916">
<rect width="88" height="18" fill="white"/>
</clipPath>
</defs>
</svg>
