<svg xmlns="http://www.w3.org/2000/svg" width="12" height="12" viewBox="0 0 12 12" fill="none">
  <path d="M6.00353 8.20466C6.04954 8.2508 6.10422 8.2874 6.16441 8.31234C6.22461 8.33729 6.28914 8.3501 6.3543 8.35003L6.3542 8.25003C6.40618 8.25008 6.45767 8.23986 6.50569 8.21996C6.55372 8.20006 6.59734 8.17086 6.63405 8.13405L6.70476 8.20476L6.70486 8.20466L10.6631 4.24645C10.6631 4.24644 10.6631 4.24643 10.6631 4.24642C10.8569 4.05275 10.8567 3.73899 10.6631 3.54532C10.4695 3.35155 10.1557 3.35158 9.96197 3.54529L6.3542 7.15307L2.74645 3.54532L2.67572 3.616L2.74642 3.54529C2.55275 3.35152 2.23899 3.35172 2.04532 3.54527C1.85155 3.73891 1.85158 4.05271 2.04529 4.24642L6.00353 8.20466ZM6.00353 8.20466L6.07434 8.13405L6.00363 8.20476L6.00353 8.20466Z" fill="#1F5FDB" stroke="#1F5FDB" stroke-width="0.2"/>
</svg>