<svg xmlns="http://www.w3.org/2000/svg" width="12" height="12" viewBox="0 0 12 12" fill="none">
  <path d="M5.99647 3.79534C5.95046 3.7492 5.89578 3.7126 5.83559 3.68766C5.77539 3.66271 5.71086 3.6499 5.6457 3.64997L5.6458 3.74997C5.59382 3.74992 5.54233 3.76013 5.49431 3.78004C5.44628 3.79994 5.40266 3.82914 5.36595 3.86595L5.29524 3.79524L5.29514 3.79534L1.33692 7.75355C1.33692 7.75356 1.33691 7.75357 1.3369 7.75358C1.14313 7.94725 1.14333 8.26101 1.33688 8.45468C1.53052 8.64845 1.84432 8.64842 2.03803 8.45471L5.6458 4.84693L9.25355 8.45468L9.32428 8.384L9.25358 8.45471C9.44725 8.64848 9.76101 8.64828 9.95468 8.45473C10.1485 8.26109 10.1484 7.94729 9.95471 7.75358L5.99647 3.79534ZM5.99647 3.79534L5.92566 3.86595L5.99637 3.79524L5.99647 3.79534Z" fill="#1F5FDB" stroke="#1F5FDB" stroke-width="0.2"/>
</svg>