<svg width="11" height="12" viewBox="0 0 11 12" fill="none" xmlns="http://www.w3.org/2000/svg">
<g clip-path="url(#clip0_777_3639)">
<path d="M0.0339829 6.69099C0.0573579 6.752 0.090809 6.8075 0.133434 6.854L1.50798 8.35351C1.68718 8.54851 1.97686 8.54851 2.15606 8.35351C2.33526 8.15801 2.33526 7.84151 2.15606 7.64651L1.56343 7.00001L4.12371 7.00001C4.37716 7.00001 4.58203 6.77602 4.58203 6.50002C4.58203 6.22402 4.37716 6.00003 4.12371 6.00003L1.56346 6.00003L2.15608 5.35353C2.33528 5.15804 2.33528 4.84154 2.15608 4.64654C2.06671 4.54854 1.94938 4.50003 1.83203 4.50003C1.71468 4.50003 1.59736 4.54852 1.50798 4.64654L0.133434 6.14604C0.0908091 6.19205 0.057358 6.24755 0.0339829 6.30905C-0.0122936 6.43136 -0.0122936 6.56868 0.0339829 6.69099Z" fill="#0094FF"/>
<path d="M3.20835 4.99999C3.4618 4.99999 3.66667 4.776 3.66667 4.5L3.66667 1.99999L5.5 1.99999L5.5 10C5.5 10.2205 5.63292 10.4155 5.8268 10.479L7.4186 11L3.66667 11L3.66667 8.49998C3.66667 8.22398 3.4618 7.99999 3.20835 7.99999C2.9549 7.99999 2.75002 8.22398 2.75002 8.49998L2.75002 11.5C2.75002 11.776 2.9549 12 3.20835 12L10.5417 12C10.5582 12 10.5728 11.9925 10.5889 11.9905C10.6104 11.988 10.6301 11.984 10.6507 11.9785C10.6976 11.9655 10.7423 11.9446 10.7832 11.9165C10.7933 11.9095 10.8057 11.909 10.8153 11.901C10.819 11.898 10.8203 11.8925 10.824 11.8895C10.874 11.8465 10.9157 11.794 10.9459 11.7315C10.9523 11.718 10.9537 11.7035 10.9588 11.6895C10.9734 11.6515 10.9895 11.6145 10.995 11.5725C10.9973 11.5575 10.9931 11.5435 10.9936 11.529C10.994 11.519 11 11.51 11 11.5L11 1.5C11 1.2615 10.8455 1.05649 10.6315 1.00999L6.04817 0.00998454C6.01838 0.00297694 5.98813 -2.23727e-05 5.95835 -2.23753e-05C5.85237 -1.66625e-05 5.74967 0.0400996 5.66777 0.113485C5.61538 0.16039 5.57316 0.219379 5.54415 0.28621C5.51515 0.353039 5.50007 0.426051 5.50002 0.499993L5.50002 0.999984L3.20835 0.999984C2.9549 0.999984 2.75002 1.22398 2.75002 1.49998L2.75002 4.5C2.75002 4.776 2.9549 4.99999 3.20835 4.99999Z" fill="#0094FF"/>
</g>
<defs>
<clipPath id="clip0_777_3639">
<rect width="11" height="12" fill="white" transform="translate(11 12) rotate(-180)"/>
</clipPath>
</defs>
</svg>
