<svg xmlns="http://www.w3.org/2000/svg" width="10" height="11" viewBox="0 0 10 11" fill="none">
  <g clip-path="url(#clip0_777_14560)">
    <path d="M8.53586 1.96433C6.5831 0.0122184 3.41734 0.0115635 1.46457 1.96433C-0.488191 3.91665 -0.488191 7.08242 1.46457 9.0354C3.4169 10.9882 6.5831 10.9882 8.53586 9.0354C10.488 7.08264 10.488 3.91687 8.53586 1.96433ZM4.37691 7.42054C4.37691 7.5734 4.31618 7.72001 4.20809 7.8281C4.1 7.93619 3.9534 7.99692 3.80053 7.99692C3.64767 7.99692 3.50106 7.93619 3.39297 7.8281C3.28488 7.72001 3.22416 7.5734 3.22416 7.42054V3.57962C3.22416 3.42676 3.28488 3.28016 3.39297 3.17206C3.50106 3.06397 3.64767 3.00325 3.80053 3.00325C3.9534 3.00325 4.1 3.06397 4.20809 3.17206C4.31618 3.28016 4.37691 3.42676 4.37691 3.57962V7.42054ZM6.77584 7.42054C6.77584 7.57338 6.71513 7.71995 6.60706 7.82802C6.49899 7.93609 6.35241 7.99681 6.19958 7.99681C6.04674 7.99681 5.90016 7.93609 5.79209 7.82802C5.68402 7.71995 5.62331 7.57338 5.62331 7.42054V3.57962C5.62331 3.26159 5.88154 3.00336 6.19958 3.00336C6.51762 3.00336 6.77584 3.26159 6.77584 3.57962V7.42054Z" fill="#1E2226"/>
  </g>
  <defs>
    <clipPath id="clip0_777_14560">
      <rect width="10" height="10" fill="white" transform="translate(0 0.5)"/>
    </clipPath>
  </defs>
</svg>