<svg width="122" height="129" viewBox="0 0 122 129" fill="none" xmlns="http://www.w3.org/2000/svg">
<g filter="url(#filter0_d_435_7238)">
<path d="M96.5164 56.4192C102.686 60.3495 102.686 69.3566 96.5164 73.2869L42.9951 107.384C36.338 111.625 27.622 106.843 27.622 98.9503L27.622 30.7558C27.622 22.8626 36.338 18.0809 42.9951 22.3219L96.5164 56.4192Z" fill="url(#paint0_linear_435_7238)"/>
<path d="M96.2478 56.8409C102.109 60.5746 102.109 69.1315 96.2478 72.8652L42.7264 106.962C36.4022 110.991 28.122 106.449 28.122 98.9503L28.122 30.7558C28.122 23.2573 36.4022 18.7147 42.7264 22.7436L96.2478 56.8409Z" stroke="#FFA92D"/>
</g>
<path d="M45.5302 69.7194C44.5942 69.7194 43.7925 69.5157 43.1252 69.1084C42.4578 68.6967 41.9443 68.1247 41.5847 67.3924C41.2293 66.6601 41.0517 65.8107 41.0517 64.8444C41.0517 63.8781 41.2293 63.0287 41.5847 62.2964C41.9443 61.5641 42.4578 60.9942 43.1252 60.5869C43.7925 60.1752 44.5942 59.9694 45.5302 59.9694C46.6092 59.9694 47.5083 60.2402 48.2277 60.7819C48.947 61.3192 49.4518 62.0451 49.7422 62.9594L48.1627 63.3949C47.9807 62.7839 47.6708 62.3072 47.2332 61.9649C46.7955 61.6182 46.2278 61.4449 45.5302 61.4449C44.9018 61.4449 44.3775 61.5857 43.9572 61.8674C43.5412 62.1491 43.227 62.5456 43.0147 63.0569C42.8067 63.5639 42.7005 64.1597 42.6962 64.8444C42.6962 65.5291 42.8002 66.1271 43.0082 66.6384C43.2205 67.1454 43.5368 67.5397 43.9572 67.8214C44.3775 68.1031 44.9018 68.2439 45.5302 68.2439C46.2278 68.2439 46.7955 68.0706 47.2332 67.7239C47.6708 67.3772 47.9807 66.9006 48.1627 66.2939L49.7422 66.7294C49.4518 67.6437 48.947 68.3717 48.2277 68.9134C47.5083 69.4507 46.6092 69.7194 45.5302 69.7194ZM52.9308 69.5244V63.8954H50.5843V62.5044H56.8438V63.8954H54.4973V69.5244H52.9308ZM59.8735 69.7194C59.3665 69.7194 58.9375 69.6241 58.5865 69.4334C58.2355 69.2384 57.969 68.9806 57.787 68.6599C57.6094 68.3392 57.5205 67.9861 57.5205 67.6004C57.5205 67.2624 57.5769 66.9591 57.6895 66.6904C57.8022 66.4174 57.9755 66.1834 58.2095 65.9884C58.4435 65.7891 58.7469 65.6266 59.1195 65.5009C59.4012 65.4099 59.7305 65.3276 60.1075 65.2539C60.4889 65.1802 60.9005 65.1131 61.3425 65.0524C61.7889 64.9874 62.2547 64.9181 62.74 64.8444L62.181 65.1629C62.1854 64.6776 62.077 64.3201 61.856 64.0904C61.635 63.8607 61.2624 63.7459 60.738 63.7459C60.4217 63.7459 60.1162 63.8196 59.8215 63.9669C59.5269 64.1142 59.321 64.3677 59.204 64.7274L57.774 64.2789C57.9474 63.6852 58.2767 63.2086 58.762 62.8489C59.2517 62.4892 59.9104 62.3094 60.738 62.3094C61.362 62.3094 61.9102 62.4112 62.3825 62.6149C62.8592 62.8186 63.2124 63.1522 63.442 63.6159C63.5677 63.8629 63.6435 64.1164 63.6695 64.3764C63.6955 64.6321 63.7085 64.9116 63.7085 65.2149V69.5244H62.337V68.0034L62.5645 68.2504C62.2482 68.7574 61.8777 69.1301 61.453 69.3684C61.0327 69.6024 60.5062 69.7194 59.8735 69.7194ZM60.1855 68.4714C60.5409 68.4714 60.8442 68.4086 61.0955 68.2829C61.3469 68.1572 61.5462 68.0034 61.6935 67.8214C61.8452 67.6394 61.947 67.4682 61.999 67.3079C62.0814 67.1086 62.1269 66.8811 62.1355 66.6254C62.1485 66.3654 62.155 66.1552 62.155 65.9949L62.636 66.1379C62.1637 66.2116 61.7585 66.2766 61.4205 66.3329C61.0825 66.3892 60.7922 66.4434 60.5495 66.4954C60.3069 66.5431 60.0924 66.5972 59.906 66.6579C59.724 66.7229 59.5702 66.7987 59.4445 66.8854C59.3189 66.9721 59.2214 67.0717 59.152 67.1844C59.087 67.2971 59.0545 67.4292 59.0545 67.5809C59.0545 67.7542 59.0979 67.9081 59.1845 68.0424C59.2712 68.1724 59.3969 68.2764 59.5615 68.3544C59.7305 68.4324 59.9385 68.4714 60.1855 68.4714ZM68.7743 69.7194C68.0896 69.7194 67.5154 69.5569 67.0518 69.2319C66.5881 68.9069 66.2393 68.4649 66.0053 67.9059C65.7713 67.3426 65.6543 66.7121 65.6543 66.0144C65.6543 65.3081 65.7713 64.6754 66.0053 64.1164C66.2393 63.5574 66.5816 63.1176 67.0323 62.7969C67.4873 62.4719 68.0484 62.3094 68.7158 62.3094C69.3788 62.3094 69.9529 62.4719 70.4383 62.7969C70.9279 63.1176 71.3071 63.5574 71.5758 64.1164C71.8444 64.6711 71.9788 65.3037 71.9788 66.0144C71.9788 66.7164 71.8466 67.3469 71.5823 67.9059C71.3179 68.4649 70.9453 68.9069 70.4643 69.2319C69.9833 69.5569 69.4199 69.7194 68.7743 69.7194ZM65.3878 72.6444V62.5044H66.7723V67.4314H66.9673V72.6444H65.3878ZM68.5338 68.3154C68.9411 68.3154 69.2769 68.2136 69.5413 68.0099C69.8056 67.8062 70.0006 67.5311 70.1263 67.1844C70.2563 66.8334 70.3213 66.4434 70.3213 66.0144C70.3213 65.5897 70.2563 65.2041 70.1263 64.8574C69.9963 64.5064 69.7948 64.2291 69.5218 64.0254C69.2488 63.8174 68.9021 63.7134 68.4818 63.7134C68.0831 63.7134 67.7581 63.8109 67.5068 64.0059C67.2554 64.1966 67.0691 64.4652 66.9478 64.8119C66.8308 65.1542 66.7723 65.5551 66.7723 66.0144C66.7723 66.4694 66.8308 66.8702 66.9478 67.2169C67.0691 67.5636 67.2576 67.8344 67.5133 68.0294C67.7733 68.2201 68.1134 68.3154 68.5338 68.3154ZM75.173 69.5244V63.8954H72.8265V62.5044H79.086V63.8954H76.7395V69.5244H75.173Z" fill="white"/>
<defs>
<filter id="filter0_d_435_7238" x="7.62207" y="0.739624" width="113.521" height="128.227" filterUnits="userSpaceOnUse" color-interpolation-filters="sRGB">
<feFlood flood-opacity="0" result="BackgroundImageFix"/>
<feColorMatrix in="SourceAlpha" type="matrix" values="0 0 0 0 0 0 0 0 0 0 0 0 0 0 0 0 0 0 127 0" result="hardAlpha"/>
<feOffset/>
<feGaussianBlur stdDeviation="10"/>
<feComposite in2="hardAlpha" operator="out"/>
<feColorMatrix type="matrix" values="0 0 0 0 1 0 0 0 0 0.48 0 0 0 0 0 0 0 0 1 0"/>
<feBlend mode="normal" in2="BackgroundImageFix" result="effect1_dropShadow_435_7238"/>
<feBlend mode="normal" in="SourceGraphic" in2="effect1_dropShadow_435_7238" result="shape"/>
</filter>
<linearGradient id="paint0_linear_435_7238" x1="66.3283" y1="28.9789" x2="66.3283" y2="113.944" gradientUnits="userSpaceOnUse">
<stop stop-color="#FF9700"/>
<stop offset="1" stop-color="#FF7A00"/>
</linearGradient>
</defs>
</svg>
