<svg xmlns="http://www.w3.org/2000/svg" width="17" height="17" viewBox="0 0 17 17" fill="none">
<g clip-path="url(#clip0_435_5860)">
<path d="M8.75033 0.899414C7.29993 0.899414 5.88211 1.32951 4.67615 2.1353C3.47019 2.9411 2.53025 4.08641 1.97521 5.4264C1.42017 6.76639 1.27495 8.24088 1.5579 9.66341C1.84086 11.0859 2.53929 12.3926 3.56488 13.4182C4.59046 14.4438 5.89714 15.1422 7.31967 15.4252C8.74219 15.7081 10.2167 15.5629 11.5567 15.0079C12.8967 14.4528 14.042 13.5129 14.8478 12.3069C15.6536 11.101 16.0837 9.68314 16.0837 8.23275C16.0837 6.28783 15.311 4.42256 13.9358 3.0473C12.5605 1.67203 10.6952 0.899414 8.75033 0.899414ZM12.0837 8.89941H9.417V11.5661C9.417 11.7429 9.34676 11.9125 9.22173 12.0375C9.09671 12.1625 8.92714 12.2327 8.75033 12.2327C8.57352 12.2327 8.40395 12.1625 8.27892 12.0375C8.1539 11.9125 8.08366 11.7429 8.08366 11.5661V8.89941H5.417C5.24018 8.89941 5.07062 8.82918 4.94559 8.70415C4.82057 8.57913 4.75033 8.40956 4.75033 8.23275C4.75033 8.05594 4.82057 7.88637 4.94559 7.76134C5.07062 7.63632 5.24018 7.56608 5.417 7.56608H8.08366V4.89941C8.08366 4.7226 8.1539 4.55303 8.27892 4.42801C8.40395 4.30299 8.57352 4.23275 8.75033 4.23275C8.92714 4.23275 9.09671 4.30299 9.22173 4.42801C9.34676 4.55303 9.417 4.7226 9.417 4.89941V7.56608H12.0837C12.2605 7.56608 12.43 7.63632 12.5551 7.76134C12.6801 7.88637 12.7503 8.05594 12.7503 8.23275C12.7503 8.40956 12.6801 8.57913 12.5551 8.70415C12.43 8.82918 12.2605 8.89941 12.0837 8.89941Z" fill="#FF9700"/>
</g>
<defs>
<clipPath id="clip0_435_5860">
<rect width="16" height="16" fill="white" transform="translate(0.75 0.232422)"/>
</clipPath>
</defs>
</svg>