<svg width="16" height="13" viewBox="0 0 16 13" fill="none" xmlns="http://www.w3.org/2000/svg">
<path d="M7.33334 3.83887V1.5C7.33334 0.948563 6.88478 0.5 6.33334 0.5C6.08528 0.5 5.84572 0.595063 5.66016 0.767594L5.22981 1.16572C3.81381 2.47591 1.44337 4.66862 0.230469 5.88509C0.0820312 6.03484 0 6.25294 0 6.5C0 6.74706 0.0820312 6.96516 0.230469 7.11525C1.44337 8.33141 3.81381 10.5241 5.22981 11.8343L5.66016 12.2324C5.84572 12.405 6.08528 12.5 6.33334 12.5C6.88478 12.5 7.33334 12.0515 7.33334 11.5V9.16897C12.1335 9.23634 15.3333 10.7503 15.3333 12.1667C15.3333 12.2105 15.3419 12.2538 15.3587 12.2943C15.3754 12.3347 15.4 12.3715 15.4309 12.4025C15.4619 12.4334 15.4986 12.458 15.5391 12.4747C15.5795 12.4915 15.6229 12.5001 15.6667 12.5C15.7105 12.5001 15.7538 12.4915 15.7943 12.4747C15.8347 12.458 15.8715 12.4334 15.9025 12.4025C15.9334 12.3715 15.958 12.3347 15.9747 12.2943C15.9915 12.2538 16.0001 12.2105 16 12.1667C16 7.67481 12.1426 4.00162 7.33334 3.83887ZM7 8.5C6.95622 8.49997 6.91286 8.50857 6.8724 8.52532C6.83194 8.54206 6.79519 8.56661 6.76423 8.59757C6.73327 8.62853 6.70871 8.66529 6.69197 8.70574C6.67523 8.7462 6.66663 8.78956 6.66666 8.83334V11.5C6.66666 11.6839 6.51691 11.8333 6.33331 11.8333C6.23175 11.8333 6.15753 11.7845 6.11325 11.7435L5.68291 11.3451C4.27019 10.0381 1.90625 7.85125 0.703125 6.64484C0.684906 6.62663 0.666656 6.57453 0.666656 6.5C0.666656 6.42547 0.684875 6.37337 0.703125 6.35547C1.90625 5.14875 4.27019 2.96191 5.68294 1.65494L6.11328 1.2565C6.15756 1.21547 6.23178 1.16666 6.33334 1.16666C6.51694 1.16666 6.66669 1.31606 6.66669 1.5V4.16666C6.66666 4.21044 6.67526 4.2538 6.692 4.29426C6.70875 4.33471 6.7333 4.37147 6.76426 4.40243C6.79522 4.43339 6.83198 4.45794 6.87243 4.47468C6.91289 4.49143 6.95625 4.50003 7.00003 4.5C11.0078 4.5 14.364 7.11653 15.1563 10.5902C13.7337 9.34406 10.6537 8.5 7 8.5Z" fill="#FF9700"/>
</svg>
