<svg xmlns="http://www.w3.org/2000/svg" width="25" height="25" viewBox="0 0 25 25" fill="none">
  <g clip-path="url(#clip0_482_6333)">
    <path d="M12.5 0C5.59668 0 0 5.59668 0 12.5C0 19.4033 5.59668 25 12.5 25C19.4033 25 25 19.4033 25 12.5C25 5.59668 19.4033 0 12.5 0Z" fill="white"/>
    <path d="M13.8671 11.3688L19.2182 5.14856H17.9501L13.3038 10.5495L9.59274 5.14856H5.3125L10.9243 13.3157L5.3125 19.8386H6.58061L11.4873 14.135L15.4064 19.8386H19.6866L13.8667 11.3688H13.8671ZM7.03752 6.10318H8.98526L17.9507 18.9274H16.003L7.03752 6.10318Z" fill="#FF9700"/>
  </g>
  <defs>
    <clipPath id="clip0_482_6333">
      <rect width="25" height="25" fill="white"/>
    </clipPath>
  </defs>
</svg>