<svg width="29" height="28" viewBox="0 0 29 28" fill="none" xmlns="http://www.w3.org/2000/svg">
<path d="M25.375 0.40625H3.625C2.90394 0.40625 2.21242 0.692689 1.70255 1.20255C1.19269 1.71242 0.90625 2.40394 0.90625 3.125V24.875C0.90625 25.5961 1.19269 26.2876 1.70255 26.7974C2.21242 27.3073 2.90394 27.5938 3.625 27.5938H25.375C26.0961 27.5938 26.7876 27.3073 27.2974 26.7974C27.8073 26.2876 28.0938 25.5961 28.0938 24.875V3.125C28.0938 2.40394 27.8073 1.71242 27.2974 1.20255C26.7876 0.692689 26.0961 0.40625 25.375 0.40625ZM15.2703 20.2894C15.1687 20.3263 15.0613 20.3447 14.9531 20.3438C14.768 20.3444 14.587 20.2882 14.4347 20.1829C14.2824 20.0776 14.1661 19.9281 14.1013 19.7547L13.1316 17.1537H8.60031L7.64875 19.7547C7.6071 19.8666 7.54382 19.9691 7.46252 20.0565C7.38123 20.144 7.28351 20.2145 7.17496 20.2642C7.0664 20.3138 6.94912 20.3416 6.82983 20.3459C6.71054 20.3502 6.59156 20.331 6.47969 20.2894C6.36782 20.2477 6.26525 20.1844 6.17783 20.1031C6.09042 20.0219 6.01987 19.9241 5.97022 19.8156C5.92057 19.707 5.89279 19.5898 5.88846 19.4705C5.88413 19.3512 5.90335 19.2322 5.945 19.1203L10.0231 8.24531C10.0866 8.07036 10.2024 7.9192 10.3549 7.81238C10.5073 7.70556 10.6889 7.64825 10.875 7.64825C11.0611 7.64825 11.2427 7.70556 11.3951 7.81238C11.5476 7.9192 11.6634 8.07036 11.7269 8.24531L15.805 19.1203C15.847 19.2322 15.8665 19.3512 15.8624 19.4706C15.8582 19.59 15.8305 19.7074 15.7808 19.8161C15.7311 19.9247 15.6604 20.0225 15.5728 20.1037C15.4852 20.1849 15.3824 20.248 15.2703 20.2894ZM23.1094 19.4375C23.1094 19.6779 23.0139 19.9084 22.8439 20.0783C22.674 20.2483 22.4435 20.3438 22.2031 20.3438C22.0513 20.3401 21.9029 20.2983 21.7715 20.2223C21.6401 20.1463 21.5298 20.0385 21.4509 19.9088C20.9993 20.1974 20.4735 20.3486 19.9375 20.3438H19.5931C18.8144 20.3438 18.0675 20.0344 17.5169 19.4837C16.9662 18.9331 16.6569 18.1862 16.6569 17.4075C16.6569 16.6288 16.9662 15.8819 17.5169 15.3313C18.0675 14.7806 18.8144 14.4713 19.5931 14.4713H21.2969V13.7825C21.3091 13.373 21.1587 12.9753 20.8784 12.6764C20.5982 12.3775 20.211 12.2017 19.8016 12.1875C19.4981 12.1907 19.2034 12.2889 18.9587 12.4684C18.8637 12.5477 18.7534 12.6066 18.6347 12.6416C18.5159 12.6765 18.3913 12.6868 18.2685 12.6718C18.1456 12.6568 18.0272 12.6167 17.9204 12.5542C17.8136 12.4916 17.7208 12.4078 17.6476 12.308C17.5745 12.2082 17.5225 12.0944 17.495 11.9737C17.4675 11.8531 17.465 11.7281 17.4876 11.6064C17.5103 11.4847 17.5576 11.369 17.6267 11.2663C17.6958 11.1636 17.7852 11.0762 17.8894 11.0094C18.4415 10.5969 19.1124 10.3743 19.8016 10.375C20.6917 10.3893 21.5399 10.7561 22.16 11.3949C22.7801 12.0337 23.1215 12.8923 23.1094 13.7825V19.4375Z" fill="black"/>
<path d="M21.2976 16.2839H19.621C19.323 16.2839 19.0371 16.4023 18.8264 16.6131C18.6157 16.8238 18.4973 17.1097 18.4973 17.4077C18.4973 17.7057 18.6157 17.9916 18.8264 18.2023C19.0371 18.4131 19.323 18.5314 19.621 18.5314H19.9382C20.2041 18.5291 20.4582 18.4216 20.6451 18.2324L21.2976 17.6252V16.2839ZM9.29883 15.3414H12.4526L10.8757 11.1455L9.29883 15.3414Z" fill="black"/>
</svg>
