<svg width="35" height="35" viewBox="0 0 35 35" fill="none" xmlns="http://www.w3.org/2000/svg">
<g clip-path="url(#clip0_435_18077)">
<path d="M27.5355 0H7.46448C3.34196 0 0 3.34196 0 7.46448V27.5355C0 31.658 3.34196 35 7.46448 35H27.5355C31.658 35 35 31.658 35 27.5355V7.46448C35 3.34196 31.658 0 27.5355 0Z" fill="#2CB742"/>
<path fill-rule="evenodd" clip-rule="evenodd" d="M17.0002 7.25948C15.3063 7.34713 13.661 7.85639 12.2138 8.74103C10.7665 9.62567 9.56309 10.8577 8.71267 12.3253C7.86225 13.7929 7.39176 15.4497 7.3439 17.1452C7.29604 18.8407 7.67233 20.5214 8.43861 22.0346L7.35175 27.2741C7.33787 27.3392 7.34067 27.4068 7.3599 27.4705C7.37913 27.5342 7.41416 27.5921 7.46174 27.6386C7.50932 27.6852 7.56789 27.7189 7.63202 27.7368C7.69615 27.7546 7.76375 27.756 7.82854 27.7407L12.9655 26.5256C14.4927 27.2797 16.1845 27.6391 17.8863 27.5708C19.5882 27.5026 21.2458 27.0089 22.7077 26.1349C24.1696 25.2609 25.3891 24.0345 26.2549 22.5678C27.1207 21.101 27.605 19.4407 27.6637 17.7385C27.7086 16.3342 27.4621 14.9359 26.9397 13.6317C26.4173 12.3274 25.6304 11.1455 24.6285 10.1606C23.6267 9.17556 22.4316 8.40879 21.1187 7.90861C19.8058 7.40842 18.4035 7.18566 17.0002 7.25436V7.25948ZM23.1317 23.0497C22.3937 23.792 21.5156 24.3804 20.5484 24.7808C19.5813 25.1812 18.5443 25.3857 17.4975 25.3824C16.2517 25.3824 15.0623 25.1004 13.9549 24.5467L13.2372 24.193L10.0894 24.9364L10.7559 21.7219L10.397 21.0298C9.82573 19.911 9.53042 18.6717 9.53573 17.4155C9.54329 15.8436 10.015 14.3091 10.8918 13.0044C11.7685 11.6998 13.0111 10.6833 14.4636 10.0824C15.9161 9.48162 17.5137 9.3233 19.0559 9.62736C20.598 9.93142 22.016 10.6843 23.1317 11.7915C24.6222 13.2868 25.4592 15.3119 25.4592 17.4232C25.4592 19.5344 24.6222 21.5596 23.1317 23.0549V23.0497Z" fill="white"/>
<path fill-rule="evenodd" clip-rule="evenodd" d="M22.4352 19.6199L20.4666 19.0559C20.3394 19.0188 20.2046 19.0169 20.0764 19.0503C19.9482 19.0837 19.8315 19.1512 19.7386 19.2456L19.2567 19.7378C19.1575 19.839 19.0305 19.9086 18.8919 19.9378C18.7532 19.967 18.609 19.9545 18.4774 19.9019C17.5443 19.5276 15.5859 17.7845 15.0835 16.913C15.0123 16.7892 14.9796 16.647 14.9896 16.5045C14.9997 16.362 15.052 16.2258 15.1399 16.1132L15.5603 15.5698C15.6411 15.4656 15.6923 15.3416 15.7085 15.2108C15.7248 15.08 15.7055 14.9472 15.6526 14.8264L14.8221 12.95C14.7758 12.8461 14.7059 12.7544 14.6181 12.6821C14.5302 12.6098 14.4267 12.559 14.3158 12.5336C14.2049 12.5082 14.0896 12.509 13.979 12.5359C13.8684 12.5628 13.7657 12.6151 13.6788 12.6886C13.1251 13.15 12.474 13.8575 12.3971 14.6419C12.2536 16.0261 12.8483 17.764 15.0835 19.8506C17.6725 22.2653 19.7437 22.5831 21.092 22.2601C21.8559 22.0756 22.466 21.3322 22.8505 20.7221C22.9126 20.6262 22.9514 20.5171 22.9638 20.4036C22.9763 20.29 22.962 20.1751 22.9222 20.068C22.8823 19.9609 22.818 19.8647 22.7344 19.7869C22.6507 19.709 22.5449 19.6519 22.4352 19.6199Z" fill="white"/>
</g>
<defs>
<clipPath id="clip0_435_18077">
<rect width="35" height="35" fill="white"/>
</clipPath>
</defs>
</svg>
