<svg width="35" height="35" viewBox="0 0 35 35" fill="none" xmlns="http://www.w3.org/2000/svg">
<g clip-path="url(#clip0_435_18088)">
<path d="M18.6706 16.9023L26.5468 28.1682H23.3144L16.8872 18.9752V18.9746L15.9436 17.6251L8.43555 6.8855H11.668L17.7269 15.5528L18.6706 16.9023Z" fill="black"/>
<path d="M31.2182 0H3.78183C1.69324 0 0 1.69324 0 3.78183V31.2182C0 33.3068 1.69324 35 3.78183 35H31.2182C33.3068 35 35 33.3068 35 31.2182V3.78183C35 1.69324 33.3068 0 31.2182 0ZM22.3241 29.6807L15.8202 20.215L7.67718 29.6807H5.57262L14.8857 18.8555L5.57262 5.30134H12.6759L18.8347 14.2647L26.5455 5.30134H28.6501L19.7694 15.6245H19.7689L29.4274 29.6807H22.3241Z" fill="black"/>
</g>
<defs>
<clipPath id="clip0_435_18088">
<rect width="35" height="35" fill="white"/>
</clipPath>
</defs>
</svg>
