<svg width="35" height="35" viewBox="0 0 35 35" fill="none" xmlns="http://www.w3.org/2000/svg">
<g clip-path="url(#clip0_435_18092)">
<path d="M31.7526 0H3.24744C1.45393 0 0 1.45393 0 3.24744V31.7526C0 33.5461 1.45393 35 3.24744 35H31.7526C33.5461 35 35 33.5461 35 31.7526V3.24744C35 1.45393 33.5461 0 31.7526 0Z" fill="#F96600"/>
<path d="M16.4233 21.9704C14.727 21.7934 13.1978 21.3738 11.8892 20.3517C11.7262 20.2244 11.5591 20.1011 11.41 19.954C10.8372 19.4031 10.7796 18.7727 11.233 18.1244C11.6208 17.5676 12.271 17.4184 12.9492 17.7386C13.0794 17.8045 13.2044 17.8803 13.323 17.9653C14.5356 18.7894 15.965 19.2364 17.4311 19.2498C18.8971 19.2633 20.3344 18.8426 21.562 18.0409C21.7965 17.8508 22.0671 17.7101 22.3574 17.6273C22.6274 17.5474 22.9163 17.5607 23.1778 17.665C23.4393 17.7692 23.6581 17.9583 23.7992 18.202C24.1571 18.7866 24.1531 19.3554 23.7117 19.8088C23.035 20.4932 22.2172 21.0218 21.3154 21.3579C20.4373 21.6734 19.5235 21.8785 18.5949 21.9684C18.7341 22.1216 18.7938 22.1951 18.8892 22.2826C20.148 23.5494 21.4128 24.8102 22.6676 26.079C22.8676 26.2607 23.0031 26.5024 23.0541 26.7677C23.105 27.033 23.0685 27.3077 22.95 27.5505C22.8294 27.8167 22.633 28.0414 22.3855 28.1967C22.1379 28.352 21.8501 28.4309 21.558 28.4236C21.2162 28.3899 20.9 28.2279 20.673 27.9701C19.7225 27.0136 18.754 26.075 17.8233 25.1005C17.5529 24.8182 17.4256 24.8719 17.183 25.1165C16.2264 26.1108 15.254 27.0713 14.2776 28.0338C14.0963 28.2347 13.8534 28.3697 13.587 28.4176C13.3206 28.4655 13.0459 28.4235 12.806 28.2983C12.546 28.1769 12.3267 27.983 12.1743 27.7399C12.0219 27.4969 11.9429 27.215 11.9469 26.9281C11.9756 26.5736 12.1411 26.2441 12.4083 26.0094C13.6571 24.7645 14.902 23.5189 16.1429 22.2727C16.2264 22.1872 16.306 22.0977 16.4233 21.9704Z" fill="white"/>
<path d="M17.4553 17.6351C16.3586 17.6287 15.2886 17.2968 14.3809 16.6814C13.4731 16.066 12.7686 15.1949 12.3566 14.1786C11.9447 13.1623 11.8438 12.0465 12.0669 10.9727C12.29 9.899 12.8269 8.9157 13.6096 8.14755C14.3923 7.37939 15.3855 6.86099 16.4632 6.65809C17.5409 6.45519 18.6546 6.57692 19.6631 7.00786C20.6715 7.4388 21.5293 8.15952 22.1275 9.07862C22.7258 9.99772 23.0376 11.0738 23.0234 12.1704C23.0035 13.6315 22.4072 15.0255 21.3643 16.049C20.3215 17.0725 18.9165 17.6426 17.4553 17.6351ZM20.2055 12.0928C20.204 11.5568 20.0434 11.0333 19.7441 10.5886C19.4448 10.1439 19.0203 9.79796 18.5243 9.59466C18.0283 9.39135 17.4832 9.33979 16.9579 9.44649C16.4326 9.55319 15.9507 9.81336 15.5734 10.1941C15.196 10.5748 14.9401 11.0589 14.8381 11.5851C14.736 12.1113 14.7924 12.656 15 13.1502C15.2077 13.6443 15.5574 14.0658 16.0047 14.3611C16.452 14.6565 16.9769 14.8124 17.5129 14.8093C17.8683 14.8085 18.2201 14.7375 18.5479 14.6005C18.8758 14.4634 19.1734 14.2629 19.4236 14.0105C19.6738 13.7581 19.8717 13.4587 20.0058 13.1296C20.14 12.8005 20.2079 12.4482 20.2055 12.0928Z" fill="white"/>
</g>
<defs>
<clipPath id="clip0_435_18092">
<rect width="35" height="35" fill="white"/>
</clipPath>
</defs>
</svg>
