<svg width="35" height="35" viewBox="0 0 35 35" fill="none" xmlns="http://www.w3.org/2000/svg">
<g clip-path="url(#clip0_435_18100)">
<rect width="35" height="35" rx="4" fill="#6F3FAA"/>
<path d="M28.7389 34.4035C21.2696 35.2004 13.7366 35.2004 6.2673 34.4035C4.81682 34.2503 3.46267 33.6046 2.43061 32.574C1.39854 31.5434 0.750918 30.1901 0.59571 28.7399C-0.201174 21.2705 -0.201174 13.7376 0.59571 6.26828C0.748882 4.8178 1.3946 3.46365 2.42522 2.43158C3.45584 1.39952 4.80909 0.751894 6.25935 0.596686C13.7287 -0.200198 21.2616 -0.200198 28.7309 0.596686C30.1814 0.749858 31.5356 1.39558 32.5676 2.4262C33.5997 3.45682 34.2473 4.81006 34.4025 6.26032C35.1994 13.7297 35.1994 21.2626 34.4025 28.7319C34.2494 30.1824 33.6036 31.5365 32.573 32.5686C31.5424 33.6007 30.1891 34.2483 28.7389 34.4035Z" fill="#6F3FAA"/>
<path d="M27.6072 12.2203V12.1944C27.3725 11.2439 26.76 10.2615 25.9566 9.4342C25.018 8.46375 23.8228 7.7021 22.6813 7.45551H22.6574C19.2534 6.80324 15.7564 6.80324 12.3523 7.45551H12.3285C10.2086 7.91488 7.90773 10.1302 7.39466 12.1944V12.2203C6.76428 15.0821 6.76428 18.0468 7.39466 20.9086V20.9325C7.76057 22.4041 9.0333 23.9512 10.5009 24.8859C10.9802 25.1982 11.5019 25.44 12.0501 25.6038V27.9066C12.0508 28.0907 12.1064 28.2703 12.2096 28.4227C12.3129 28.575 12.4592 28.6932 12.6298 28.7621C12.8005 28.831 12.9878 28.8475 13.1678 28.8095C13.3479 28.7716 13.5126 28.6809 13.641 28.549L15.9756 26.1228C16.4807 26.1507 16.9898 26.1666 17.4949 26.1666C19.224 26.1661 20.9492 26.0023 22.6475 25.6774H22.6714C24.7853 25.216 27.0881 23.0007 27.5972 20.9365V20.9126C28.2315 18.0502 28.2348 15.0841 27.6072 12.2203ZM25.7597 20.4831C25.4177 21.8294 23.6716 23.5058 22.2816 23.814C20.4761 24.1599 18.6386 24.3099 16.8009 24.2615C16.783 24.2604 16.7651 24.2634 16.7486 24.2703C16.732 24.2772 16.7173 24.2878 16.7055 24.3012L15.0012 26.0512L13.1876 27.9106C13.1585 27.9413 13.121 27.9625 13.0798 27.9716C13.0385 27.9807 12.9955 27.9772 12.9563 27.9615C12.9171 27.9459 12.8835 27.9188 12.8599 27.8839C12.8362 27.8489 12.8236 27.8077 12.8236 27.7655V23.9473C12.8237 23.9166 12.813 23.8868 12.7933 23.8632C12.7737 23.8396 12.7464 23.8236 12.7163 23.818C12.4263 23.7492 12.1468 23.6422 11.885 23.4998C10.7038 22.8694 9.51256 21.5768 9.23813 20.4831C8.66969 17.8962 8.66969 15.2168 9.23813 12.6299C9.57818 11.2896 11.3341 9.61716 12.7143 9.30693C15.8747 8.70221 19.1211 8.70221 22.2816 9.30693C23.0472 9.47795 23.9222 10.0606 24.6063 10.7765C25.1691 11.3592 25.6006 12.0314 25.7597 12.6359C26.3273 15.2208 26.3273 17.8981 25.7597 20.4831Z" fill="white"/>
<path d="M22.3305 20.6819C22.0721 21.2715 21.6279 21.7604 21.0657 22.074C20.8893 22.1488 20.7062 22.2068 20.5188 22.247C20.3061 22.1834 20.1032 22.1396 19.9223 22.062C18.4148 21.4754 17.0114 20.6502 15.766 19.618C15.396 19.3025 15.0485 18.9616 14.7259 18.5978C13.9294 17.6805 13.2604 16.6597 12.7373 15.5632C12.4828 15.0441 12.268 14.5072 12.0492 13.9723C11.8504 13.4851 12.1447 12.978 12.447 12.614C12.7428 12.2765 13.1068 12.0054 13.5149 11.8186C13.6585 11.7464 13.8228 11.7268 13.9794 11.7631C14.1359 11.7994 14.2748 11.8894 14.372 12.0174C14.8801 12.5883 15.3279 13.2101 15.7083 13.8728C15.8282 14.0656 15.8692 14.297 15.8229 14.5192C15.7766 14.7414 15.6466 14.9372 15.4597 15.066C15.3603 15.1356 15.2609 15.2152 15.1754 15.2927C15.0911 15.3552 15.0184 15.4319 14.9606 15.5194C14.9107 15.6014 14.8805 15.6937 14.8722 15.7893C14.8639 15.8848 14.8779 15.981 14.9129 16.0703C15.2967 17.1262 15.8794 18.0072 16.7504 18.6257C17.0451 18.8341 17.3627 19.0082 17.697 19.1447C17.9152 19.2634 18.1605 19.3237 18.4089 19.3197C18.8424 19.268 18.9856 18.7887 19.2879 18.5422C19.4266 18.4286 19.5983 18.3627 19.7775 18.3545C19.9566 18.3463 20.1336 18.396 20.2822 18.4964C20.6044 18.6953 20.9146 18.92 21.2248 19.1387C21.5316 19.3482 21.8271 19.5739 22.1098 19.8149C22.242 19.9109 22.3364 20.0502 22.3767 20.2085C22.417 20.3669 22.4007 20.5344 22.3305 20.6819ZM18.0688 11.1524H17.8143C17.8958 11.1484 17.9813 11.1524 18.0688 11.1524Z" fill="white"/>
<path d="M22.4707 17.1124C22.2719 17.1124 22.1744 16.9434 22.1605 16.7585C22.1347 16.3945 22.1148 16.0286 22.0651 15.6667C21.9791 15.056 21.7664 14.4701 21.4406 13.9465C21.1058 13.4011 20.6602 12.932 20.1326 12.5695C19.6051 12.2071 19.0074 11.9595 18.3781 11.8425C18.0918 11.7908 17.7994 11.7789 17.5111 11.7491C17.3281 11.7292 17.0875 11.7173 17.0477 11.4906C17.0418 11.4465 17.0453 11.4017 17.0581 11.3592C17.0708 11.3166 17.0925 11.2773 17.1217 11.2438C17.1509 11.2103 17.1868 11.1834 17.2273 11.1649C17.2677 11.1464 17.3115 11.1367 17.356 11.1366C17.4037 11.1338 17.4515 11.1338 17.4991 11.1366C18.3684 11.1439 19.2224 11.3656 19.9855 11.7818C20.7487 12.1981 21.3974 12.7961 21.8741 13.5229C22.2505 14.1088 22.5061 14.764 22.6259 15.4499C22.7014 15.8795 22.7293 16.321 22.7631 16.7585C22.7699 16.8013 22.7675 16.8452 22.756 16.887C22.7446 16.9289 22.7244 16.9679 22.6967 17.0014C22.6691 17.0348 22.6346 17.062 22.5957 17.0812C22.5567 17.1003 22.5141 17.111 22.4707 17.1124Z" fill="white"/>
<path d="M21.3954 16.1835C21.3943 16.2426 21.3863 16.3013 21.3715 16.3585C21.3542 16.416 21.3195 16.4668 21.2723 16.5039C21.225 16.541 21.1675 16.5626 21.1076 16.5659C21.0476 16.5691 20.9881 16.5539 20.9371 16.5221C20.8861 16.4903 20.8462 16.4436 20.8227 16.3884C20.8008 16.3081 20.7907 16.225 20.7928 16.1418C20.7975 15.697 20.7094 15.2561 20.5343 14.8472C20.4945 14.7597 20.4508 14.6702 20.4011 14.5847C20.1164 14.094 19.6939 13.6978 19.186 13.4452C18.8796 13.3005 18.5542 13.2001 18.2195 13.1469C18.0724 13.123 17.9252 13.1091 17.7781 13.0892C17.7398 13.0873 17.7023 13.0775 17.6679 13.0605C17.6335 13.0435 17.603 13.0197 17.5782 12.9904C17.5534 12.9612 17.5349 12.9271 17.5237 12.8904C17.5126 12.8537 17.5092 12.8151 17.5136 12.777C17.5136 12.738 17.5219 12.6995 17.5378 12.6639C17.5538 12.6284 17.5771 12.5966 17.6062 12.5707C17.6353 12.5448 17.6695 12.5253 17.7067 12.5136C17.7439 12.5018 17.7831 12.4981 17.8218 12.5026C18.4057 12.5251 18.9778 12.6744 19.4982 12.9401C20.1338 13.2599 20.6522 13.7721 20.9798 14.4037C21.1642 14.7725 21.2878 15.1687 21.3457 15.577C21.3564 15.6302 21.3644 15.684 21.3695 15.7381C21.3795 15.8574 21.3835 15.9767 21.3934 16.1239C21.3934 16.1378 21.3954 16.1557 21.3954 16.1835Z" fill="white"/>
<path d="M20.0325 15.9091C20.0213 15.9595 19.9952 16.0054 19.9576 16.0409C19.92 16.0763 19.8727 16.0997 19.8217 16.108H19.778C19.7128 16.1122 19.6481 16.0951 19.5935 16.0592C19.539 16.0233 19.4976 15.9706 19.4757 15.9091C19.4633 15.8765 19.4553 15.8424 19.4518 15.8077C19.4414 15.6739 19.4214 15.541 19.3922 15.41C19.3331 15.1448 19.1824 14.9089 18.9666 14.7438C18.8623 14.6689 18.7459 14.6124 18.6226 14.5767C18.4655 14.531 18.3004 14.5429 18.1453 14.5052C18.0686 14.4916 18.0005 14.4482 17.9557 14.3844C17.911 14.3207 17.8934 14.2418 17.9067 14.1651C17.9215 14.0916 17.9625 14.026 18.0222 13.9806C18.0819 13.9353 18.156 13.9132 18.2308 13.9185C19.1416 13.9841 19.8217 14.4216 19.9967 15.3981C20.0147 15.4887 20.0273 15.5803 20.0345 15.6725C20.0456 15.751 20.045 15.8308 20.0325 15.9091Z" fill="white"/>
</g>
<defs>
<clipPath id="clip0_435_18100">
<rect width="35" height="35" rx="4" fill="white"/>
</clipPath>
</defs>
</svg>
