<svg xmlns="http://www.w3.org/2000/svg" width="12" height="13" viewBox="0 0 12 13" fill="none">
  <g clip-path="url(#clip0_777_14551)">
    <path d="M7.85369 3.28814C7.69526 3.44637 7.69517 3.70313 7.85348 3.86156C8.9187 4.92751 8.91801 6.66254 7.85198 7.72922C7.69367 7.88769 7.69376 8.14438 7.85215 8.30272C7.88976 8.34041 7.93444 8.3703 7.98363 8.39067C8.03282 8.41105 8.08555 8.42151 8.1388 8.42146C8.24265 8.42146 8.34641 8.38176 8.42561 8.30256C9.80753 6.91979 9.80822 4.67046 8.42711 3.28834C8.26888 3.12991 8.01208 3.12975 7.85369 3.28814ZM6.33771 4.45137C6.17928 4.6096 6.1792 4.86636 6.33751 5.02479C6.76215 5.44976 6.76211 6.14127 6.33743 6.56627C6.17912 6.72466 6.1792 6.98143 6.33763 7.13978C6.37524 7.17745 6.41991 7.20733 6.4691 7.22769C6.51828 7.24805 6.57101 7.2585 6.62424 7.25843C6.67753 7.25852 6.7303 7.24806 6.77953 7.22765C6.82875 7.20724 6.87345 7.1773 6.91105 7.13954C7.65162 6.39848 7.65166 5.19263 6.91113 4.45157C6.75291 4.29306 6.4961 4.29298 6.33771 4.45137Z" fill="#1E2226"/>
    <path d="M10.2226 1.49221C10.0643 1.33373 9.80759 1.33365 9.64916 1.49196C9.49073 1.65027 9.49065 1.90704 9.64896 2.06547C11.7037 4.12149 11.7028 7.46779 9.64685 9.52475C9.48854 9.68314 9.48862 9.93991 9.64701 10.0983C9.68462 10.1359 9.72931 10.1658 9.7785 10.1862C9.82769 10.2066 9.88042 10.217 9.93366 10.217C10.0375 10.217 10.1413 10.1773 10.2205 10.0981C12.5924 7.72496 12.5933 3.86436 10.2226 1.49221ZM2.95007 8.41075C3.99262 8.33894 4.81908 7.46739 4.81908 6.40566C4.81908 5.29709 3.91817 4.39525 2.81086 4.39525C1.70347 4.39525 0.802565 5.29709 0.802565 6.40566C0.802565 7.46735 1.62902 8.33886 2.67161 8.41075C1.89102 8.44076 1.20357 8.72279 0.724424 9.2132C0.232183 9.717 -0.0179728 10.4145 0.00100482 11.2304C0.00346205 11.3363 0.0472504 11.437 0.123006 11.5111C0.198762 11.5851 0.300472 11.6265 0.406387 11.6265H5.21494C5.43525 11.6265 5.61521 11.4506 5.62032 11.2303C5.63925 10.4143 5.38906 9.71676 4.89678 9.21296C4.41775 8.72271 3.73051 8.44076 2.95007 8.41075Z" fill="#1E2226"/>
  </g>
  <defs>
    <clipPath id="clip0_777_14551">
      <rect width="12" height="12" fill="white" transform="translate(0 0.5)"/>
    </clipPath>
  </defs>
</svg>