<svg width="23" height="14" viewBox="0 0 23 14" fill="none" xmlns="http://www.w3.org/2000/svg">
<path d="M1.17492 10.3361H1.18412C1.28 10.3348 1.37192 10.2976 1.44174 10.2319C1.51157 10.1662 1.55424 10.0767 1.56132 9.9811C1.66027 8.88804 1.98223 7.82686 2.5073 6.86308C3.03238 5.8993 3.74943 5.05338 4.61419 4.37753L3.62787 3.3916C1.96033 5.18171 0.957765 7.48995 0.787756 9.9305C0.784702 9.98301 0.792485 10.0356 0.810619 10.0849C0.828754 10.1343 0.856853 10.1794 0.893168 10.2175C0.929484 10.2555 0.973238 10.2857 1.02171 10.3061C1.07018 10.3265 1.12233 10.3367 1.17492 10.3361Z" fill="black"/>
<path d="M9.39141 11.483C9.70897 11.483 9.96641 11.2256 9.96641 10.908C9.96641 10.5904 9.70897 10.333 9.39141 10.333C9.07384 10.333 8.81641 10.5904 8.81641 10.908C8.81641 11.2256 9.07384 11.483 9.39141 11.483Z" fill="black"/>
<path d="M11.1167 2.81275V-0.0078125C8.53258 0.0749773 6.06572 1.09021 4.17188 2.85032L5.25172 3.92864C6.54528 3.1025 8.04853 2.66443 9.58339 2.66632C10.098 2.66668 10.6114 2.7157 11.1167 2.81275ZM11.8834 -0.0078125V2.99944C12.1665 3.08397 12.4447 3.18417 12.7168 3.29959C12.9345 3.08569 13.1503 2.87447 13.3604 2.66977C13.5172 2.51482 13.7219 2.41776 13.9411 2.39449C14.1603 2.37123 14.3809 2.42315 14.5667 2.54174C14.7527 2.65256 14.8954 2.82329 14.9715 3.02591C15.0477 3.22854 15.0527 3.45102 14.9857 3.65685C14.9025 3.9202 14.8105 4.2077 14.7151 4.50517C15.1634 4.87486 15.5703 5.29206 15.9287 5.74947L18.8298 2.85032C16.9357 1.08969 14.4681 0.0744035 11.8834 -0.0078125ZM19.3714 3.3912L16.3764 6.38465C17.0654 7.46555 17.486 8.69547 17.6031 9.97189C17.6102 10.0681 17.6532 10.1581 17.7237 10.224C17.7942 10.2899 17.8869 10.3267 17.9834 10.3272L21.8228 10.333C21.8751 10.3331 21.9268 10.3225 21.9749 10.3018C22.0229 10.2812 22.0662 10.251 22.1021 10.213C22.138 10.175 22.1657 10.1301 22.1836 10.081C22.2015 10.0318 22.2092 9.9796 22.2062 9.92742C22.0386 7.4881 21.0378 5.18047 19.3714 3.3912Z" fill="black"/>
<path d="M14.1605 3.19361C14.1233 3.17 14.0804 3.15676 14.0363 3.15527C14.0097 3.15541 13.9833 3.16095 13.9589 3.17156C13.9344 3.18216 13.9124 3.19762 13.8941 3.21699C10.4303 6.59032 8.18513 8.99727 7.57141 9.99701C7.43613 10.2135 7.34563 10.4549 7.30527 10.7069C7.2649 10.9589 7.2755 11.2165 7.33643 11.4644C7.39966 11.7243 7.51432 11.969 7.67365 12.1839C7.83298 12.3988 8.03374 12.5796 8.26409 12.7156C8.71883 12.9948 9.26506 13.0842 9.78507 12.9644C10.3051 12.8447 10.7572 12.5254 11.044 12.0754C11.8816 10.7261 13.4123 6.07781 14.2518 3.42476C14.2665 3.38167 14.2654 3.33475 14.2487 3.29239C14.232 3.25004 14.2007 3.21502 14.1605 3.19361ZM9.38994 12.2495C9.12459 12.2495 8.86519 12.1708 8.64455 12.0234C8.42392 11.8759 8.25195 11.6664 8.1504 11.4212C8.04886 11.1761 8.02229 10.9063 8.07406 10.6461C8.12582 10.3858 8.25361 10.1467 8.44124 9.95911C8.62888 9.77147 8.86794 9.64369 9.1282 9.59192C9.38845 9.54015 9.65822 9.56672 9.90338 9.66827C10.1485 9.76982 10.3581 9.94178 10.5055 10.1624C10.6529 10.3831 10.7316 10.6425 10.7316 10.9078C10.7316 11.2636 10.5903 11.6049 10.3386 11.8565C10.087 12.1081 9.74578 12.2495 9.38994 12.2495Z" fill="black"/>
</svg>
