<svg width="16" height="15" viewBox="0 0 16 15" fill="none" xmlns="http://www.w3.org/2000/svg">
<path d="M14.9527 6.63647C15.0997 6.49415 15.2038 6.31327 15.2528 6.11457C15.3018 5.91586 15.2939 5.70736 15.2299 5.51295C15.1674 5.31798 15.0512 5.14457 14.8947 5.01259C14.7381 4.88062 14.5476 4.79543 14.3448 4.76679L10.644 4.22906C10.5664 4.21778 10.4927 4.18778 10.4292 4.14166C10.3658 4.09554 10.3145 4.03468 10.2798 3.96432L8.62531 0.610891C8.53538 0.427004 8.39547 0.272169 8.22161 0.164127C8.04775 0.0560855 7.84696 -0.000793174 7.64227 8.35578e-06C7.43762 -0.00073559 7.23691 0.0561702 7.0631 0.164209C6.8893 0.272248 6.74944 0.427051 6.65953 0.610891L5.0047 3.96432C4.93431 4.10725 4.79781 4.2061 4.64019 4.22906L0.93939 4.7671C0.736704 4.79566 0.546179 4.8808 0.389677 5.01272C0.233175 5.14465 0.117036 5.31802 0.0545888 5.51295C-0.00938192 5.70736 -0.0173007 5.91586 0.0317395 6.11457C0.0807797 6.31327 0.184796 6.49415 0.331873 6.63647L3.00954 9.2465C3.12369 9.3579 3.17603 9.51827 3.1491 9.67497L2.5171 13.3608C2.48173 13.5623 2.50385 13.7698 2.58093 13.9593C2.65801 14.1489 2.78693 14.3129 2.95292 14.4326C3.11794 14.5538 3.31385 14.626 3.51809 14.6408C3.72233 14.6555 3.92659 14.6123 4.10735 14.5161L7.41701 12.7759C7.48649 12.7394 7.56379 12.7204 7.64227 12.7204C7.72074 12.7204 7.79805 12.7394 7.86752 12.7759L11.1775 14.5161C11.3584 14.6118 11.5626 14.6547 11.7667 14.6399C11.9708 14.6251 12.1667 14.5533 12.3319 14.4326C12.4979 14.3129 12.6268 14.1489 12.7039 13.9593C12.781 13.7698 12.8031 13.5623 12.7677 13.3608L12.1354 9.67528C12.1222 9.5979 12.128 9.51846 12.1523 9.44382C12.1766 9.36917 12.2187 9.30156 12.275 9.2468L14.9527 6.63647ZM11.5325 9.77872L12.1645 13.4642C12.1809 13.5533 12.1714 13.6452 12.1373 13.729C12.1032 13.8129 12.0459 13.8853 11.972 13.9377C11.8993 13.9916 11.8128 14.0237 11.7226 14.0302C11.6324 14.0368 11.5421 14.0175 11.4624 13.9747L8.15246 12.2342C7.99505 12.1517 7.81996 12.1086 7.64223 12.1086C7.4645 12.1087 7.28944 12.1519 7.13208 12.2345L3.82272 13.9747C3.74296 14.0175 3.65268 14.0368 3.5624 14.0302C3.47213 14.0236 3.38557 13.9916 3.31283 13.9377C3.23901 13.8853 3.18168 13.8129 3.14758 13.729C3.11348 13.6451 3.10402 13.5533 3.12033 13.4642L3.75233 9.77872C3.78238 9.60357 3.76939 9.42373 3.71447 9.25472C3.65955 9.0857 3.56436 8.93257 3.43709 8.80853L0.759124 6.1982C0.693498 6.13582 0.647099 6.05595 0.625406 5.96804C0.603713 5.88013 0.607633 5.78785 0.636703 5.70209C0.694853 5.52274 0.84084 5.39971 1.02723 5.37247L4.72772 4.83474C4.90365 4.80934 5.07075 4.74148 5.21457 4.63702C5.35838 4.53255 5.47459 4.39463 5.55315 4.23518L7.20798 0.881748C7.24708 0.800102 7.30871 0.731337 7.3856 0.683563C7.46249 0.63579 7.55144 0.610999 7.64196 0.612115C7.83049 0.612115 7.9927 0.712807 8.07625 0.881748L9.73108 4.23518C9.80959 4.39461 9.92574 4.53252 10.0695 4.63698C10.2133 4.74145 10.3803 4.80932 10.5562 4.83474L14.257 5.37247C14.3467 5.38448 14.4312 5.42189 14.5004 5.48029C14.5696 5.53869 14.6206 5.61564 14.6475 5.70209C14.7057 5.88113 14.6601 6.0666 14.5251 6.1982L11.8474 8.80823C11.7202 8.93231 11.625 9.0855 11.5701 9.25458C11.5153 9.42366 11.5023 9.60355 11.5325 9.77872Z" fill="#15283E"/>
</svg>
