<svg width="18" height="11" viewBox="0 0 18 11" fill="none" xmlns="http://www.w3.org/2000/svg">
<path d="M8.85327 7C9.6817 7 10.3533 6.32843 10.3533 5.5C10.3533 4.67157 9.6817 4 8.85327 4C8.02484 4 7.35327 4.67157 7.35327 5.5C7.35327 6.32843 8.02484 7 8.85327 7Z" fill="#1E2226"/>
<path d="M17.0408 5.1875C16.2283 3.75 15.0408 2.625 13.6658 1.75C12.1658 0.9375 10.5408 0.5 8.85327 0.5C7.16577 0.5 5.54077 0.9375 4.04077 1.8125C2.66577 2.625 1.47827 3.8125 0.665771 5.25C0.540771 5.4375 0.540771 5.6875 0.665771 5.875C1.47827 7.3125 2.66577 8.4375 4.04077 9.3125C5.47827 10.1875 7.16577 10.625 8.85327 10.625C10.5408 10.625 12.1658 10.1875 13.6658 9.3125C15.0408 8.5 16.2283 7.3125 17.0408 5.875C17.1033 5.625 17.1033 5.375 17.0408 5.1875ZM8.85327 8.25C7.35327 8.25 6.10327 7 6.10327 5.5C6.10327 4 7.35327 2.75 8.85327 2.75C10.3533 2.75 11.6033 4 11.6033 5.5C11.6033 7 10.3533 8.25 8.85327 8.25Z" fill="#1E2226"/>
</svg>
